<svg width="90" height="90" viewBox="0 0 90 90" fill="none" xmlns="http://www.w3.org/2000/svg">
<path d="M0 8.4375C0 6.19974 0.888948 4.05362 2.47129 2.47129C4.05362 0.888948 6.19974 0 8.4375 0L53.4375 0C55.6753 0 57.8214 0.888948 59.4037 2.47129C60.9861 4.05362 61.875 6.19974 61.875 8.4375V19.6875C61.875 21.9253 60.9861 24.0714 59.4037 25.6537C57.8214 27.2361 55.6753 28.125 53.4375 28.125H8.4375C6.19974 28.125 4.05362 27.2361 2.47129 25.6537C0.888948 24.0714 0 21.9253 0 19.6875L0 8.4375ZM8.4375 5.625C7.69158 5.625 6.97621 5.92132 6.44876 6.44876C5.92132 6.97621 5.625 7.69158 5.625 8.4375V19.6875C5.625 20.4334 5.92132 21.1488 6.44876 21.6762C6.97621 22.2037 7.69158 22.5 8.4375 22.5H53.4375C54.1834 22.5 54.8988 22.2037 55.4262 21.6762C55.9537 21.1488 56.25 20.4334 56.25 19.6875V8.4375C56.25 7.69158 55.9537 6.97621 55.4262 6.44876C54.8988 5.92132 54.1834 5.625 53.4375 5.625H8.4375Z" fill="#EBEBEB"/>
<path d="M44.0044 15.8794L41.7769 13.6519C41.5797 13.4552 41.4454 13.2044 41.3909 12.9313C41.3364 12.6582 41.3643 12.375 41.4709 12.1178C41.5776 11.8605 41.7582 11.6407 41.9899 11.4862C42.2216 11.3317 42.494 11.2495 42.7725 11.25H47.2275C47.506 11.2495 47.7784 11.3317 48.0101 11.4862C48.2418 11.6407 48.4224 11.8605 48.5291 12.1178C48.6357 12.375 48.6636 12.6582 48.6091 12.9313C48.5546 13.2044 48.4203 13.4552 48.2231 13.6519L45.9956 15.8794C45.865 16.0103 45.7098 16.1142 45.539 16.1851C45.3681 16.256 45.185 16.2925 45 16.2925C44.815 16.2925 44.6319 16.256 44.461 16.1851C44.2902 16.1142 44.135 16.0103 44.0044 15.8794ZM0 45C0 42.0163 1.18526 39.1548 3.29505 37.0451C5.40483 34.9353 8.26631 33.75 11.25 33.75H78.75C81.7337 33.75 84.5952 34.9353 86.7049 37.0451C88.8147 39.1548 90 42.0163 90 45V73.125C90 76.1087 88.8147 78.9702 86.7049 81.0799C84.5952 83.1897 81.7337 84.375 78.75 84.375H11.25C8.26631 84.375 5.40483 83.1897 3.29505 81.0799C1.18526 78.9702 0 76.1087 0 73.125V45ZM5.625 61.875V73.125C5.625 74.6168 6.21763 76.0476 7.27252 77.1025C8.32742 78.1574 9.75816 78.75 11.25 78.75H78.75C80.2418 78.75 81.6726 78.1574 82.7275 77.1025C83.7824 76.0476 84.375 74.6168 84.375 73.125V61.875H5.625ZM84.375 56.25V45C84.375 43.5082 83.7824 42.0774 82.7275 41.0225C81.6726 39.9676 80.2418 39.375 78.75 39.375H11.25C9.75816 39.375 8.32742 39.9676 7.27252 41.0225C6.21763 42.0774 5.625 43.5082 5.625 45V56.25H84.375ZM11.25 47.8125C11.25 47.0666 11.5463 46.3512 12.0738 45.8238C12.6012 45.2963 13.3166 45 14.0625 45H64.6875C65.4334 45 66.1488 45.2963 66.6762 45.8238C67.2037 46.3512 67.5 47.0666 67.5 47.8125C67.5 48.5584 67.2037 49.2738 66.6762 49.8012C66.1488 50.3287 65.4334 50.625 64.6875 50.625H14.0625C13.3166 50.625 12.6012 50.3287 12.0738 49.8012C11.5463 49.2738 11.25 48.5584 11.25 47.8125ZM11.25 70.3125C11.25 69.5666 11.5463 68.8512 12.0738 68.3238C12.6012 67.7963 13.3166 67.5 14.0625 67.5H47.8125C48.5584 67.5 49.2738 67.7963 49.8012 68.3238C50.3287 68.8512 50.625 69.5666 50.625 70.3125C50.625 71.0584 50.3287 71.7738 49.8012 72.3012C49.2738 72.8287 48.5584 73.125 47.8125 73.125H14.0625C13.3166 73.125 12.6012 72.8287 12.0738 72.3012C11.5463 71.7738 11.25 71.0584 11.25 70.3125Z" fill="#EBEBEB"/>
</svg>
