<svg width="100" height="100" viewBox="0 0 100 100" fill="none" xmlns="http://www.w3.org/2000/svg">
<path d="M0 21.875C0 19.3886 0.98772 17.004 2.74587 15.2459C4.50403 13.4877 6.8886 12.5 9.375 12.5H90.625C93.1114 12.5 95.496 13.4877 97.2541 15.2459C99.0123 17.004 100 19.3886 100 21.875V78.125C100 80.6114 99.0123 82.996 97.2541 84.7541C95.496 86.5123 93.1114 87.5 90.625 87.5H9.375C6.8886 87.5 4.50403 86.5123 2.74587 84.7541C0.98772 82.996 0 80.6114 0 78.125L0 21.875ZM9.375 18.75C8.5462 18.75 7.75134 19.0792 7.16529 19.6653C6.57924 20.2513 6.25 21.0462 6.25 21.875V78.125C6.25 78.9538 6.57924 79.7487 7.16529 80.3347C7.75134 80.9208 8.5462 81.25 9.375 81.25H90.625C91.4538 81.25 92.2487 80.9208 92.8347 80.3347C93.4208 79.7487 93.75 78.9538 93.75 78.125V21.875C93.75 21.0462 93.4208 20.2513 92.8347 19.6653C92.2487 19.0792 91.4538 18.75 90.625 18.75H9.375Z" fill="#EBEBEB"/>
<path d="M12.5 28.125C12.5 27.2962 12.8292 26.5013 13.4153 25.9153C14.0013 25.3292 14.7962 25 15.625 25H34.375C35.2038 25 35.9987 25.3292 36.5847 25.9153C37.1708 26.5013 37.5 27.2962 37.5 28.125C37.5 28.9538 37.1708 29.7487 36.5847 30.3347C35.9987 30.9208 35.2038 31.25 34.375 31.25H18.75V46.875C18.75 47.7038 18.4208 48.4987 17.8347 49.0847C17.2487 49.6708 16.4538 50 15.625 50C14.7962 50 14.0013 49.6708 13.4153 49.0847C12.8292 48.4987 12.5 47.7038 12.5 46.875V28.125ZM87.5 71.875C87.5 72.7038 87.1708 73.4987 86.5847 74.0847C85.9987 74.6708 85.2038 75 84.375 75H65.625C64.7962 75 64.0013 74.6708 63.4153 74.0847C62.8292 73.4987 62.5 72.7038 62.5 71.875C62.5 71.0462 62.8292 70.2513 63.4153 69.6653C64.0013 69.0792 64.7962 68.75 65.625 68.75H81.25V53.125C81.25 52.2962 81.5792 51.5013 82.1653 50.9153C82.7513 50.3292 83.5462 50 84.375 50C85.2038 50 85.9987 50.3292 86.5847 50.9153C87.1708 51.5013 87.5 52.2962 87.5 53.125V71.875Z" fill="#EBEBEB"/>
</svg>
