<svg width="28" height="28" viewBox="0 0 28 28" fill="none" xmlns="http://www.w3.org/2000/svg">
<path d="M25.179 7.21708C24.9107 6.21375 24.1197 5.42275 23.1163 5.15441C21.2963 4.66675 14 4.66675 14 4.66675C14 4.66675 6.70367 4.66675 4.88367 5.15441C3.88033 5.42275 3.08933 6.21375 2.821 7.21708C2.33333 9.03708 2.33333 14.0001 2.33333 14.0001C2.33333 14.0001 2.33333 18.9631 2.821 20.7831C3.08933 21.7864 3.88033 22.5774 4.88367 22.8457C6.70367 23.3334 14 23.3334 14 23.3334C14 23.3334 21.2963 23.3334 23.1163 22.8457C24.1208 22.5774 24.9107 21.7864 25.179 20.7831C25.6667 18.9631 25.6667 14.0001 25.6667 14.0001C25.6667 14.0001 25.6667 9.03708 25.179 7.21708ZM11.6667 17.0311V10.9691C11.6667 10.5199 12.1532 10.2399 12.5417 10.4639L17.7917 13.4949C18.1802 13.7189 18.1802 14.2812 17.7917 14.5052L12.5417 17.5362C12.1532 17.7614 11.6667 17.4802 11.6667 17.0311Z" fill="#808080"/>
</svg>
