<svg width="70" height="83" viewBox="0 0 70 83" fill="none" xmlns="http://www.w3.org/2000/svg">
<path d="M22.0156 5.1875C23.0475 5.1875 24.0371 5.5974 24.7667 6.32704C25.4963 7.05667 25.9062 8.04627 25.9062 9.07812V41.5C25.9062 42.1879 26.1795 42.8476 26.6659 43.3341C27.1524 43.8205 27.8121 44.0938 28.5 44.0938C29.1879 44.0938 29.8476 43.8205 30.3341 43.3341C30.8205 42.8476 31.0937 42.1879 31.0937 41.5V28.3601L31.5399 28.3393C33.1843 28.2771 34.8443 28.2978 35.7729 28.4794C36.468 28.6194 37.298 28.9774 38.0969 29.4235C38.4963 29.6414 38.875 30.1861 38.875 31.0524V41.5C38.875 42.1879 39.1483 42.8476 39.6347 43.3341C40.1211 43.8205 40.7808 44.0938 41.4687 44.0938C42.1567 44.0938 42.8164 43.8205 43.3028 43.3341C43.7892 42.8476 44.0625 42.1879 44.0625 41.5V33.3816C44.2456 33.3623 44.4289 33.345 44.6124 33.3297C46.2516 33.2052 47.6419 33.2778 48.2851 33.5372C48.8972 33.7758 49.8414 34.611 50.8062 35.7678C51.2264 36.2658 51.5844 36.7534 51.8437 37.1114V44.0938C51.8437 44.7817 52.117 45.4414 52.6034 45.9278C53.0899 46.4142 53.7496 46.6875 54.4375 46.6875C55.1254 46.6875 55.7851 46.4142 56.2716 45.9278C56.758 45.4414 57.0312 44.7817 57.0312 44.0938V38.9062H58.8054C59.5304 38.9062 60.2473 39.0582 60.9099 39.3523C61.5726 39.6464 62.1662 40.0762 62.6526 40.6138C63.1389 41.1515 63.5071 41.7851 63.7335 42.4739C63.9599 43.1626 64.0394 43.8911 63.9669 44.6125L62.5611 58.6966C62.3796 60.5065 61.8193 62.2581 60.9167 63.8374L53.6801 76.5053C53.4534 76.9022 53.1257 77.2322 52.7303 77.4618C52.335 77.6914 51.8859 77.8124 51.4287 77.8125H18.3066C17.8794 77.8123 17.4589 77.7066 17.0825 77.5048C16.706 77.303 16.3852 77.0113 16.1486 76.6557L8.71487 65.5026C8.02467 64.4682 7.59241 63.2835 7.45431 62.0477L5.66463 45.9405C5.59229 45.295 5.76481 44.6458 6.14807 44.1213C6.53133 43.5969 7.09743 43.2353 7.73444 43.1081L12.9375 42.0706V46.6875C12.9375 47.3754 13.2108 48.0351 13.6972 48.5216C14.1836 49.008 14.8433 49.2812 15.5312 49.2812C16.2192 49.2812 16.8789 49.008 17.3653 48.5216C17.8517 48.0351 18.125 47.3754 18.125 46.6875V9.07812C18.125 8.04627 18.5349 7.05667 19.2645 6.32704C19.9942 5.5974 20.9838 5.1875 22.0156 5.1875V5.1875ZM31.0937 23.1674V9.07812C31.0937 6.67046 30.1373 4.3614 28.4348 2.65892C26.7323 0.956442 24.4233 0 22.0156 0C19.608 0 17.2989 0.956442 15.5964 2.65892C13.8939 4.3614 12.9375 6.67046 12.9375 9.07812V36.7794L6.7125 38.0244C4.80442 38.4069 3.10895 39.4906 1.96046 41.0616C0.811969 42.6326 0.293838 44.5769 0.508251 46.5111L2.29794 62.6235C2.5281 64.6832 3.24853 66.6577 4.39888 68.3816L11.8326 79.5347C12.5431 80.6006 13.5057 81.4746 14.6351 82.0791C15.7645 82.6836 17.0256 82.9999 18.3066 83H51.4287C52.8003 82.9996 54.1474 82.6366 55.3335 81.9479C56.5196 81.2592 57.5026 80.2692 58.1829 79.0783L65.4194 66.4156C66.6846 64.2021 67.4693 61.747 67.7227 59.2101L69.1285 45.1261C69.2727 43.6838 69.1131 42.2273 68.66 40.8504C68.2069 39.4736 67.4703 38.2069 66.4977 37.1322C65.5251 36.0575 64.3381 35.1984 63.0132 34.6105C61.6883 34.0226 60.2549 33.7188 58.8054 33.7188H55.7914C55.4676 33.2796 55.1302 32.8506 54.7799 32.4322C53.7891 31.2443 52.1342 29.4857 50.2149 28.718C48.3266 27.9606 45.8262 28.0332 44.2077 28.1577L43.523 28.22C42.9707 26.8063 41.9436 25.6288 40.618 24.8896C39.4246 24.2013 38.1338 23.6976 36.7896 23.3956C35.1815 23.074 32.9561 23.0948 31.3427 23.157L31.0937 23.1674Z" fill="#EBEBEB"/>
</svg>
