<svg width="87" height="91" viewBox="0 0 87 91" fill="none" xmlns="http://www.w3.org/2000/svg">
<g filter="url(#filter0_d_34_131)">
<path d="M35.0156 5.1875C36.0475 5.1875 37.0371 5.5974 37.7667 6.32704C38.4963 7.05667 38.9062 8.04627 38.9062 9.07812V41.5C38.9062 42.1879 39.1795 42.8476 39.6659 43.3341C40.1524 43.8205 40.8121 44.0938 41.5 44.0938C42.1879 44.0938 42.8476 43.8205 43.3341 43.3341C43.8205 42.8476 44.0937 42.1879 44.0937 41.5V28.3601L44.5399 28.3393C46.1843 28.2771 47.8443 28.2978 48.7729 28.4794C49.468 28.6194 50.298 28.9774 51.0969 29.4235C51.4963 29.6414 51.875 30.1861 51.875 31.0524V41.5C51.875 42.1879 52.1483 42.8476 52.6347 43.3341C53.1211 43.8205 53.7808 44.0938 54.4687 44.0938C55.1567 44.0938 55.8164 43.8205 56.3028 43.3341C56.7892 42.8476 57.0625 42.1879 57.0625 41.5V33.3816C57.2456 33.3623 57.4289 33.345 57.6124 33.3297C59.2516 33.2052 60.6419 33.2778 61.2851 33.5372C61.8972 33.7758 62.8414 34.611 63.8062 35.7678C64.2264 36.2658 64.5844 36.7534 64.8437 37.1114V44.0938C64.8437 44.7817 65.117 45.4414 65.6034 45.9278C66.0899 46.4142 66.7496 46.6875 67.4375 46.6875C68.1254 46.6875 68.7851 46.4142 69.2716 45.9278C69.758 45.4414 70.0312 44.7817 70.0312 44.0938V38.9062H71.8054C72.5304 38.9062 73.2473 39.0582 73.9099 39.3523C74.5726 39.6464 75.1662 40.0762 75.6526 40.6138C76.1389 41.1515 76.5071 41.7851 76.7335 42.4739C76.9599 43.1626 77.0394 43.8911 76.9669 44.6125L75.5611 58.6966C75.3796 60.5065 74.8193 62.2581 73.9167 63.8374L66.6801 76.5052C66.4534 76.9022 66.1257 77.2322 65.7303 77.4618C65.335 77.6914 64.8859 77.8124 64.4287 77.8125H31.3066C30.8794 77.8123 30.4589 77.7066 30.0825 77.5048C29.706 77.303 29.3852 77.0113 29.1486 76.6557L21.7149 65.5026C21.0247 64.4682 20.5924 63.2835 20.4543 62.0477L18.6646 45.9405C18.5923 45.295 18.7648 44.6458 19.1481 44.1213C19.5313 43.5969 20.0974 43.2353 20.7344 43.1081L25.9375 42.0706V46.6875C25.9375 47.3754 26.2108 48.0351 26.6972 48.5216C27.1836 49.008 27.8433 49.2812 28.5312 49.2812C29.2192 49.2812 29.8789 49.008 30.3653 48.5216C30.8517 48.0351 31.125 47.3754 31.125 46.6875V9.07812C31.125 8.04627 31.5349 7.05667 32.2645 6.32704C32.9942 5.5974 33.9838 5.1875 35.0156 5.1875ZM44.0937 23.1674V9.07812C44.0937 6.67046 43.1373 4.3614 41.4348 2.65892C39.7323 0.956442 37.4233 0 35.0156 0C32.608 0 30.2989 0.956442 28.5964 2.65892C26.8939 4.3614 25.9375 6.67046 25.9375 9.07812V36.7794L19.7125 38.0244C17.8044 38.4069 16.1089 39.4906 14.9605 41.0616C13.812 42.6326 13.2938 44.5769 13.5083 46.5111L15.2979 62.6235C15.5281 64.6832 16.2485 66.6577 17.3989 68.3816L24.8326 79.5348C25.5431 80.6006 26.5057 81.4746 27.6351 82.0791C28.7645 82.6836 30.0256 82.9999 31.3066 83H64.4287C65.8003 82.9996 67.1474 82.6366 68.3335 81.9479C69.5196 81.2592 70.5026 80.2692 71.1829 79.0783L78.4194 66.4156C79.6846 64.2021 80.4693 61.747 80.7227 59.2101L82.1285 45.1261C82.2727 43.6838 82.1131 42.2273 81.66 40.8504C81.2069 39.4736 80.4703 38.2069 79.4977 37.1322C78.5251 36.0575 77.3381 35.1984 76.0132 34.6105C74.6883 34.0226 73.2549 33.7188 71.8054 33.7188H68.7914C68.4676 33.2796 68.1302 32.8506 67.7799 32.4323C66.7891 31.2443 65.1342 29.4857 63.2149 28.718C61.3266 27.9606 58.8262 28.0333 57.2077 28.1577L56.523 28.22C55.9707 26.8063 54.9436 25.6288 53.618 24.8896C52.4246 24.2013 51.1338 23.6976 49.7896 23.3956C48.1815 23.074 45.9561 23.0948 44.3428 23.157L44.0937 23.1674Z" fill="#EBEBEB"/>
</g>
<defs>
<filter id="filter0_d_34_131" x="-4" y="0" width="91" height="91" filterUnits="userSpaceOnUse" color-interpolation-filters="sRGB">
<feFlood flood-opacity="0" result="BackgroundImageFix"/>
<feColorMatrix in="SourceAlpha" type="matrix" values="0 0 0 0 0 0 0 0 0 0 0 0 0 0 0 0 0 0 127 0" result="hardAlpha"/>
<feOffset dy="4"/>
<feGaussianBlur stdDeviation="2"/>
<feComposite in2="hardAlpha" operator="out"/>
<feColorMatrix type="matrix" values="0 0 0 0 0 0 0 0 0 0 0 0 0 0 0 0 0 0 0.25 0"/>
<feBlend mode="normal" in2="BackgroundImageFix" result="effect1_dropShadow_34_131"/>
<feBlend mode="normal" in="SourceGraphic" in2="effect1_dropShadow_34_131" result="shape"/>
</filter>
</defs>
</svg>
