<svg width="532" height="738" viewBox="0 0 532 738" fill="none" xmlns="http://www.w3.org/2000/svg">
<g clip-path="url(#clip0_134_17)">
<path d="M23.8162 540.411L120.411 443.816C141.499 422.728 175.69 422.728 196.778 443.816L293.373 540.411C314.461 561.499 314.461 595.69 293.373 616.778L196.778 713.372C175.69 734.461 141.499 734.461 120.411 713.373L23.8162 616.778C2.72793 595.69 2.72792 561.499 23.8162 540.411ZM237.816 327.411L334.411 230.816C355.499 209.728 389.69 209.728 410.778 230.816L507.372 327.411C528.461 348.499 528.461 382.69 507.373 403.778L410.778 500.373C389.69 521.461 355.499 521.461 334.411 500.373L237.816 403.778C216.728 382.69 216.728 348.499 237.816 327.411ZM23.8162 120.411L120.411 23.8162C141.499 2.72793 175.69 2.72792 196.778 23.8162L293.373 120.411C314.461 141.499 314.461 175.69 293.373 196.778L196.778 293.373C175.69 314.461 141.499 314.461 120.411 293.373L23.8162 196.778C2.72793 175.69 2.72792 141.499 23.8162 120.411Z" stroke="url(#paint0_linear_134_17)" stroke-width="16" stroke-linejoin="round"/>
</g>
<defs>
<linearGradient id="paint0_linear_134_17" x1="671.319" y1="0.318939" x2="92.4134" y2="-115.762" gradientUnits="userSpaceOnUse">
<stop stop-color="#F4F4F4" stop-opacity="0.5"/>
<stop offset="1" stop-color="#FAFAFA" stop-opacity="0.5"/>
</linearGradient>
<clipPath id="clip0_134_17">
<rect width="531.189" height="737.189" fill="white"/>
</clipPath>
</defs>
</svg>
