<svg width="69" height="68" viewBox="0 0 69 68" fill="none" xmlns="http://www.w3.org/2000/svg">
<path d="M55 35.5C55 47.3741 45.598 57 34 57C22.402 57 13 47.3741 13 35.5C13 23.6259 22.402 14 34 14C45.598 14 55 23.6259 55 35.5Z" fill="#19E385"/>
<path d="M0.352051 34.256C0.352051 53.968 14.5601 67.536 34.1441 67.536C53.7281 67.536 67.9361 53.968 67.9361 34.256C67.9361 14.544 53.7281 0.975998 34.1441 0.975998C14.5601 0.975998 0.352051 14.544 0.352051 34.256ZM15.9681 34.256C15.9681 22.736 23.3921 14.928 34.1441 14.928C44.8961 14.928 52.3201 22.736 52.3201 34.256C52.3201 45.776 44.8961 53.584 34.1441 53.584C23.3921 53.584 15.9681 45.776 15.9681 34.256Z" fill="url(#paint0_linear_33_60)"/>
<path fill-rule="evenodd" clip-rule="evenodd" d="M60.4553 6.28699L68.9448 15.6062L30.9933 57.2669L8.6167 32.7034L17.1062 23.3842L30.9933 38.6285L60.4553 6.28699Z" fill="#F8F8F8"/>
<defs>
<linearGradient id="paint0_linear_33_60" x1="34.5" y1="-2.13077" x2="34.5" y2="69.0654" gradientUnits="userSpaceOnUse">
<stop stop-color="#00FF8D"/>
<stop offset="1" stop-color="#38DB8A"/>
</linearGradient>
</defs>
</svg>
