<svg width="42" height="42" viewBox="0 0 42 42" fill="none" xmlns="http://www.w3.org/2000/svg">
<path d="M8.1 32.25C10.2 30.7833 12.2833 29.6583 14.35 28.875C16.4167 28.0917 18.6333 27.7 21 27.7C23.3667 27.7 25.5917 28.0917 27.675 28.875C29.7583 29.6583 31.85 30.7833 33.95 32.25C35.4167 30.45 36.4583 28.6333 37.075 26.8C37.6917 24.9667 38 23.0333 38 21C38 16.1667 36.375 12.125 33.125 8.875C29.875 5.625 25.8333 4 21 4C16.1667 4 12.125 5.625 8.875 8.875C5.625 12.125 4 16.1667 4 21C4 23.0333 4.31667 24.9667 4.95 26.8C5.58333 28.6333 6.63333 30.45 8.1 32.25ZM21 22.5C19.0667 22.5 17.4417 21.8417 16.125 20.525C14.8083 19.2083 14.15 17.5833 14.15 15.65C14.15 13.7167 14.8083 12.0917 16.125 10.775C17.4417 9.45833 19.0667 8.8 21 8.8C22.9333 8.8 24.5583 9.45833 25.875 10.775C27.1917 12.0917 27.85 13.7167 27.85 15.65C27.85 17.5833 27.1917 19.2083 25.875 20.525C24.5583 21.8417 22.9333 22.5 21 22.5ZM21 41C18.2667 41 15.6833 40.475 13.25 39.425C10.8167 38.375 8.69167 36.9417 6.875 35.125C5.05833 33.3083 3.625 31.1833 2.575 28.75C1.525 26.3167 1 23.7333 1 21C1 18.2333 1.525 15.6417 2.575 13.225C3.625 10.8083 5.05833 8.69167 6.875 6.875C8.69167 5.05833 10.8167 3.625 13.25 2.575C15.6833 1.525 18.2667 1 21 1C23.7667 1 26.3583 1.525 28.775 2.575C31.1917 3.625 33.3083 5.05833 35.125 6.875C36.9417 8.69167 38.375 10.8083 39.425 13.225C40.475 15.6417 41 18.2333 41 21C41 23.7333 40.475 26.3167 39.425 28.75C38.375 31.1833 36.9417 33.3083 35.125 35.125C33.3083 36.9417 31.1917 38.375 28.775 39.425C26.3583 40.475 23.7667 41 21 41ZM21 38C22.8333 38 24.625 37.7333 26.375 37.2C28.125 36.6667 29.85 35.7333 31.55 34.4C29.85 33.2 28.1167 32.2833 26.35 31.65C24.5833 31.0167 22.8 30.7 21 30.7C19.2 30.7 17.4167 31.0167 15.65 31.65C13.8833 32.2833 12.15 33.2 10.45 34.4C12.15 35.7333 13.875 36.6667 15.625 37.2C17.375 37.7333 19.1667 38 21 38ZM21 19.5C22.1333 19.5 23.0583 19.1417 23.775 18.425C24.4917 17.7083 24.85 16.7833 24.85 15.65C24.85 14.5167 24.4917 13.5917 23.775 12.875C23.0583 12.1583 22.1333 11.8 21 11.8C19.8667 11.8 18.9417 12.1583 18.225 12.875C17.5083 13.5917 17.15 14.5167 17.15 15.65C17.15 16.7833 17.5083 17.7083 18.225 18.425C18.9417 19.1417 19.8667 19.5 21 19.5Z" fill="#808080"/>
</svg>
