<svg width="28" height="28" viewBox="0 0 28 28" fill="none" xmlns="http://www.w3.org/2000/svg">
<path d="M13.6103 2.33906C7.72333 2.53156 2.76967 7.29273 2.3625 13.1692C1.932 19.3864 6.37817 24.6399 12.257 25.5231V17.0916H10.374C9.527 17.0916 8.841 16.4056 8.841 15.5586C8.841 14.7116 9.527 14.0256 10.374 14.0256H12.2558V11.9851C12.2558 8.60639 13.902 7.12356 16.7102 7.12356C17.1267 7.12356 17.4825 7.13289 17.7847 7.14806C18.5267 7.18423 19.1018 7.80256 19.1018 8.54573C19.1018 9.31923 18.4753 9.94573 17.7018 9.94573H17.1862C15.9938 9.94573 15.5773 11.0762 15.5773 12.3502V14.0267H17.759C18.4485 14.0267 18.9758 14.6416 18.8708 15.3229L18.7448 16.1407C18.6597 16.6891 18.1883 17.0939 17.633 17.0939H15.5773V25.5487C21.2742 24.7752 25.6667 19.9056 25.6667 13.9999C25.6667 7.42689 20.2312 2.12439 13.6103 2.33906Z" fill="#808080"/>
</svg>
