<svg width="1440" height="628" viewBox="0 0 1440 628" fill="none" xmlns="http://www.w3.org/2000/svg">
<mask id="mask0_51_3" style="mask-type:alpha" maskUnits="userSpaceOnUse" x="0" y="0" width="1440" height="628">
<rect width="1440" height="628" fill="url(#paint0_linear_51_3)"/>
</mask>
<g mask="url(#mask0_51_3)">
<path d="M-1073.31 354.111L-999.81 390.222C-926.309 426.333 -779.306 498.556 -632.304 534.667C-485.302 570.778 -338.299 570.778 -191.297 498.556C-44.2946 426.333 102.708 281.889 249.71 233.816C396.713 184.84 543.715 234.493 690.717 293.851C837.72 354.111 984.722 426.333 1131.72 378.26C1278.73 329.285 1425.73 162.271 1499.23 77.184L1572.73 -7V643H1499.23C1425.73 643 1278.73 643 1131.72 643C984.722 643 837.72 643 690.717 643C543.715 643 396.713 643 249.71 643C102.708 643 -44.2946 643 -191.297 643C-338.299 643 -485.302 643 -632.304 643C-779.306 643 -926.309 643 -999.81 643H-1073.31V354.111Z" fill="#1A1A1A"/>
</g>
<defs>
<linearGradient id="paint0_linear_51_3" x1="1469.96" y1="-99.485" x2="-116.507" y2="192.133" gradientUnits="userSpaceOnUse">
<stop stop-color="#1D1D1D"/>
<stop offset="1" stop-color="#141414"/>
</linearGradient>
</defs>
</svg>
