<svg width="463" height="1178" viewBox="0 0 463 1178" fill="none" xmlns="http://www.w3.org/2000/svg">
<rect x="321.421" y="178" width="200" height="200" rx="46" transform="rotate(45 321.421 178)" stroke="url(#paint0_linear_147_33)" stroke-width="14"/>
<rect x="321.421" y="537" width="200" height="200" rx="46" transform="rotate(45 321.421 537)" stroke="url(#paint1_linear_147_33)" stroke-width="14"/>
<rect x="321.421" y="895" width="200" height="200" rx="46" transform="rotate(45 321.421 895)" stroke="url(#paint2_linear_147_33)" stroke-width="14"/>
<rect x="142.42" width="200" height="200" rx="46" transform="rotate(45 142.42 0)" stroke="url(#paint3_linear_147_33)" stroke-width="14"/>
<rect x="142.421" y="355" width="200" height="200" rx="46" transform="rotate(45 142.421 355)" stroke="url(#paint4_linear_147_33)" stroke-width="14"/>
<rect x="142.421" y="714" width="200" height="200" rx="46" transform="rotate(45 142.421 714)" stroke="url(#paint5_linear_147_33)" stroke-width="14"/>
<defs>
<linearGradient id="paint0_linear_147_33" x1="574.181" y1="178.087" x2="363.748" y2="119.527" gradientUnits="userSpaceOnUse">
<stop stop-color="#F4F4F4" stop-opacity="0.5"/>
<stop offset="1" stop-color="#FAFAFA" stop-opacity="0.5"/>
</linearGradient>
<linearGradient id="paint1_linear_147_33" x1="574.182" y1="537.087" x2="363.749" y2="478.527" gradientUnits="userSpaceOnUse">
<stop stop-color="#F4F4F4" stop-opacity="0.5"/>
<stop offset="1" stop-color="#FAFAFA" stop-opacity="0.5"/>
</linearGradient>
<linearGradient id="paint2_linear_147_33" x1="574.182" y1="895.087" x2="363.749" y2="836.527" gradientUnits="userSpaceOnUse">
<stop stop-color="#F4F4F4" stop-opacity="0.5"/>
<stop offset="1" stop-color="#FAFAFA" stop-opacity="0.5"/>
</linearGradient>
<linearGradient id="paint3_linear_147_33" x1="395.181" y1="0.0865285" x2="184.747" y2="-58.4732" gradientUnits="userSpaceOnUse">
<stop stop-color="#F4F4F4" stop-opacity="0.5"/>
<stop offset="1" stop-color="#FAFAFA" stop-opacity="0.5"/>
</linearGradient>
<linearGradient id="paint4_linear_147_33" x1="395.182" y1="355.087" x2="184.748" y2="296.527" gradientUnits="userSpaceOnUse">
<stop stop-color="#F4F4F4" stop-opacity="0.5"/>
<stop offset="1" stop-color="#FAFAFA" stop-opacity="0.5"/>
</linearGradient>
<linearGradient id="paint5_linear_147_33" x1="395.182" y1="714.087" x2="184.749" y2="655.527" gradientUnits="userSpaceOnUse">
<stop stop-color="#F4F4F4" stop-opacity="0.5"/>
<stop offset="1" stop-color="#FAFAFA" stop-opacity="0.5"/>
</linearGradient>
</defs>
</svg>
