<svg width="1145" height="871" viewBox="0 0 1145 871" fill="none" xmlns="http://www.w3.org/2000/svg">
<g clip-path="url(#clip0_296_114)">
<g filter="url(#filter0_d_296_114)">
<rect x="11" y="50" width="718" height="216" rx="20" fill="#202020"/>
<g clip-path="url(#clip1_296_114)">
<path d="M679.944 162.167C679.944 171.744 676.14 180.929 669.368 187.701C662.596 194.473 653.411 198.278 643.833 198.278C634.256 198.278 625.071 194.473 618.299 187.701C611.527 180.929 607.722 171.744 607.722 162.167C607.722 152.59 611.527 143.405 618.299 136.632C625.071 129.86 634.256 126.056 643.833 126.056C653.411 126.056 662.596 129.86 669.368 136.632C676.14 143.405 679.944 152.59 679.944 162.167V162.167ZM662.024 148.49C661.702 148.168 661.318 147.915 660.895 147.746C660.473 147.576 660.021 147.494 659.566 147.503C659.111 147.512 658.662 147.613 658.247 147.8C657.832 147.986 657.458 148.255 657.149 148.589L641.473 168.563L632.025 159.111C631.383 158.513 630.534 158.187 629.657 158.203C628.78 158.218 627.943 158.574 627.323 159.194C626.703 159.814 626.348 160.651 626.332 161.528C626.317 162.405 626.642 163.254 627.24 163.896L639.184 175.844C639.506 176.165 639.889 176.418 640.311 176.588C640.732 176.758 641.184 176.841 641.638 176.833C642.093 176.824 642.541 176.724 642.956 176.539C643.371 176.354 643.745 176.086 644.054 175.754L662.074 153.229C662.688 152.591 663.028 151.736 663.019 150.85C663.011 149.964 662.655 149.117 662.029 148.49H662.024Z" fill="#0CE683"/>
</g>
<path d="M98.428 186.612C95.572 186.612 93.0107 186.136 90.744 185.184C88.4773 184.187 86.6867 182.827 85.372 181.104C84.0573 179.336 83.332 177.319 83.196 175.052H89.588C89.7693 176.911 90.6307 178.429 92.172 179.608C93.7587 180.787 95.8213 181.376 98.36 181.376C100.717 181.376 102.576 180.855 103.936 179.812C105.296 178.769 105.976 177.455 105.976 175.868C105.976 174.236 105.251 173.035 103.8 172.264C102.349 171.448 100.105 170.655 97.068 169.884C94.3027 169.159 92.036 168.433 90.268 167.708C88.5453 166.937 87.0493 165.827 85.78 164.376C84.556 162.88 83.944 160.931 83.944 158.528C83.944 156.624 84.5107 154.879 85.644 153.292C86.7773 151.705 88.3867 150.459 90.472 149.552C92.5573 148.6 94.9373 148.124 97.612 148.124C101.737 148.124 105.069 149.167 107.608 151.252C110.147 153.337 111.507 156.193 111.688 159.82H105.5C105.364 157.871 104.571 156.307 103.12 155.128C101.715 153.949 99.8107 153.36 97.408 153.36C95.1867 153.36 93.4187 153.836 92.104 154.788C90.7893 155.74 90.132 156.987 90.132 158.528C90.132 159.752 90.5173 160.772 91.288 161.588C92.104 162.359 93.1013 162.993 94.28 163.492C95.504 163.945 97.1813 164.467 99.312 165.056C101.987 165.781 104.163 166.507 105.84 167.232C107.517 167.912 108.945 168.955 110.124 170.36C111.348 171.765 111.983 173.601 112.028 175.868C112.028 177.908 111.461 179.744 110.328 181.376C109.195 183.008 107.585 184.3 105.5 185.252C103.46 186.159 101.103 186.612 98.428 186.612ZM154.763 165.94C154.763 167.119 154.695 168.365 154.559 169.68H124.775C125.002 173.352 126.249 176.231 128.515 178.316C130.827 180.356 133.615 181.376 136.879 181.376C139.554 181.376 141.775 180.764 143.543 179.54C145.357 178.271 146.626 176.593 147.351 174.508H154.015C153.018 178.089 151.023 181.013 148.031 183.28C145.039 185.501 141.322 186.612 136.879 186.612C133.343 186.612 130.17 185.819 127.359 184.232C124.594 182.645 122.418 180.401 120.831 177.5C119.245 174.553 118.451 171.153 118.451 167.3C118.451 163.447 119.222 160.069 120.763 157.168C122.305 154.267 124.458 152.045 127.223 150.504C130.034 148.917 133.253 148.124 136.879 148.124C140.415 148.124 143.543 148.895 146.263 150.436C148.983 151.977 151.069 154.108 152.519 156.828C154.015 159.503 154.763 162.54 154.763 165.94ZM148.371 164.648C148.371 162.291 147.85 160.273 146.807 158.596C145.765 156.873 144.337 155.581 142.523 154.72C140.755 153.813 138.783 153.36 136.607 153.36C133.479 153.36 130.805 154.357 128.583 156.352C126.407 158.347 125.161 161.112 124.843 164.648H148.371ZM207.743 148.056C210.645 148.056 213.229 148.668 215.495 149.892C217.762 151.071 219.553 152.861 220.867 155.264C222.182 157.667 222.839 160.591 222.839 164.036V186H216.719V164.92C216.719 161.203 215.79 158.369 213.931 156.42C212.118 154.425 209.647 153.428 206.519 153.428C203.301 153.428 200.739 154.471 198.835 156.556C196.931 158.596 195.979 161.565 195.979 165.464V186H189.859V164.92C189.859 161.203 188.93 158.369 187.071 156.42C185.258 154.425 182.787 153.428 179.659 153.428C176.441 153.428 173.879 154.471 171.975 156.556C170.071 158.596 169.119 161.565 169.119 165.464V186H162.931V148.736H169.119V154.108C170.343 152.159 171.975 150.663 174.015 149.62C176.101 148.577 178.39 148.056 180.883 148.056C184.011 148.056 186.777 148.759 189.179 150.164C191.582 151.569 193.373 153.632 194.551 156.352C195.594 153.723 197.317 151.683 199.719 150.232C202.122 148.781 204.797 148.056 207.743 148.056ZM230.678 167.232C230.678 163.424 231.449 160.092 232.99 157.236C234.531 154.335 236.639 152.091 239.314 150.504C242.034 148.917 245.049 148.124 248.358 148.124C251.622 148.124 254.455 148.827 256.858 150.232C259.261 151.637 261.051 153.405 262.23 155.536V148.736H268.486V186H262.23V179.064C261.006 181.24 259.17 183.053 256.722 184.504C254.319 185.909 251.509 186.612 248.29 186.612C244.981 186.612 241.989 185.796 239.314 184.164C236.639 182.532 234.531 180.243 232.99 177.296C231.449 174.349 230.678 170.995 230.678 167.232ZM262.23 167.3C262.23 164.489 261.663 162.041 260.53 159.956C259.397 157.871 257.855 156.284 255.906 155.196C254.002 154.063 251.894 153.496 249.582 153.496C247.27 153.496 245.162 154.04 243.258 155.128C241.354 156.216 239.835 157.803 238.702 159.888C237.569 161.973 237.002 164.421 237.002 167.232C237.002 170.088 237.569 172.581 238.702 174.712C239.835 176.797 241.354 178.407 243.258 179.54C245.162 180.628 247.27 181.172 249.582 181.172C251.894 181.172 254.002 180.628 255.906 179.54C257.855 178.407 259.397 176.797 260.53 174.712C261.663 172.581 262.23 170.111 262.23 167.3ZM250.806 139.624L241.354 145.404V140.508L250.806 134.864L260.19 140.508V145.404L250.806 139.624ZM297.099 148.056C301.632 148.056 305.304 149.439 308.115 152.204C310.926 154.924 312.331 158.868 312.331 164.036V186H306.211V164.92C306.211 161.203 305.282 158.369 303.423 156.42C301.564 154.425 299.026 153.428 295.807 153.428C292.543 153.428 289.936 154.448 287.987 156.488C286.083 158.528 285.131 161.497 285.131 165.396V186H278.943V148.736H285.131V154.04C286.355 152.136 288.01 150.663 290.095 149.62C292.226 148.577 294.56 148.056 297.099 148.056ZM329.987 153.836V175.8C329.987 177.613 330.372 178.905 331.143 179.676C331.914 180.401 333.251 180.764 335.155 180.764H339.711V186H334.135C330.69 186 328.106 185.207 326.383 183.62C324.66 182.033 323.799 179.427 323.799 175.8V153.836H318.971V148.736H323.799V139.352H329.987V148.736H339.711V153.836H329.987ZM350.405 142.684C349.226 142.684 348.229 142.276 347.413 141.46C346.597 140.644 346.189 139.647 346.189 138.468C346.189 137.289 346.597 136.292 347.413 135.476C348.229 134.66 349.226 134.252 350.405 134.252C351.538 134.252 352.49 134.66 353.261 135.476C354.077 136.292 354.485 137.289 354.485 138.468C354.485 139.647 354.077 140.644 353.261 141.46C352.49 142.276 351.538 142.684 350.405 142.684ZM353.397 148.736V186H347.209V148.736H353.397ZM361.631 167.3C361.631 163.447 362.402 160.092 363.943 157.236C365.484 154.335 367.615 152.091 370.335 150.504C373.1 148.917 376.251 148.124 379.787 148.124C384.366 148.124 388.128 149.235 391.075 151.456C394.067 153.677 396.039 156.76 396.991 160.704H390.327C389.692 158.437 388.446 156.647 386.587 155.332C384.774 154.017 382.507 153.36 379.787 153.36C376.251 153.36 373.395 154.584 371.219 157.032C369.043 159.435 367.955 162.857 367.955 167.3C367.955 171.788 369.043 175.256 371.219 177.704C373.395 180.152 376.251 181.376 379.787 181.376C382.507 181.376 384.774 180.741 386.587 179.472C388.4 178.203 389.647 176.389 390.327 174.032H396.991C395.994 177.84 393.999 180.9 391.007 183.212C388.015 185.479 384.275 186.612 379.787 186.612C376.251 186.612 373.1 185.819 370.335 184.232C367.615 182.645 365.484 180.401 363.943 177.5C362.402 174.599 361.631 171.199 361.631 167.3ZM402.936 167.232C402.936 163.424 403.706 160.092 405.248 157.236C406.789 154.335 408.897 152.091 411.572 150.504C414.292 148.917 417.306 148.124 420.616 148.124C423.88 148.124 426.713 148.827 429.116 150.232C431.518 151.637 433.309 153.405 434.488 155.536V148.736H440.744V186H434.488V179.064C433.264 181.24 431.428 183.053 428.98 184.504C426.577 185.909 423.766 186.612 420.548 186.612C417.238 186.612 414.246 185.796 411.572 184.164C408.897 182.532 406.789 180.243 405.248 177.296C403.706 174.349 402.936 170.995 402.936 167.232ZM434.488 167.3C434.488 164.489 433.921 162.041 432.788 159.956C431.654 157.871 430.113 156.284 428.164 155.196C426.26 154.063 424.152 153.496 421.84 153.496C419.528 153.496 417.42 154.04 415.516 155.128C413.612 156.216 412.093 157.803 410.96 159.888C409.826 161.973 409.26 164.421 409.26 167.232C409.26 170.088 409.826 172.581 410.96 174.712C412.093 176.797 413.612 178.407 415.516 179.54C417.42 180.628 419.528 181.172 421.84 181.172C424.152 181.172 426.26 180.628 428.164 179.54C430.113 178.407 431.654 176.797 432.788 174.712C433.921 172.581 434.488 170.111 434.488 167.3Z" fill="#F2F2F2"/>
</g>
<g filter="url(#filter1_d_296_114)">
<rect x="201" y="319" width="718" height="216" rx="20" fill="#202020"/>
<g clip-path="url(#clip2_296_114)">
<path d="M869.944 431.167C869.944 440.744 866.14 449.929 859.368 456.701C852.596 463.473 843.411 467.278 833.833 467.278C824.256 467.278 815.071 463.473 808.299 456.701C801.527 449.929 797.722 440.744 797.722 431.167C797.722 421.59 801.527 412.405 808.299 405.632C815.071 398.86 824.256 395.056 833.833 395.056C843.411 395.056 852.596 398.86 859.368 405.632C866.14 412.405 869.944 421.59 869.944 431.167V431.167ZM852.024 417.49C851.702 417.168 851.318 416.915 850.895 416.746C850.473 416.576 850.021 416.494 849.566 416.503C849.111 416.512 848.662 416.613 848.247 416.8C847.832 416.986 847.458 417.255 847.149 417.589L831.473 437.563L822.025 428.111C821.383 427.513 820.534 427.187 819.657 427.203C818.78 427.218 817.943 427.574 817.323 428.194C816.703 428.814 816.348 429.651 816.332 430.528C816.317 431.405 816.642 432.254 817.24 432.896L829.184 444.844C829.506 445.165 829.889 445.418 830.311 445.588C830.732 445.758 831.184 445.841 831.638 445.833C832.093 445.824 832.541 445.724 832.956 445.539C833.371 445.354 833.745 445.086 834.054 444.754L852.074 422.229C852.688 421.591 853.028 420.736 853.019 419.85C853.011 418.964 852.655 418.117 852.029 417.49H852.024Z" fill="#0CE683"/>
</g>
<path d="M257.924 436.232C257.924 432.424 258.695 429.092 260.236 426.236C261.777 423.335 263.885 421.091 266.56 419.504C269.28 417.917 272.295 417.124 275.604 417.124C278.868 417.124 281.701 417.827 284.104 419.232C286.507 420.637 288.297 422.405 289.476 424.536V417.736H295.732V455H289.476V448.064C288.252 450.24 286.416 452.053 283.968 453.504C281.565 454.909 278.755 455.612 275.536 455.612C272.227 455.612 269.235 454.796 266.56 453.164C263.885 451.532 261.777 449.243 260.236 446.296C258.695 443.349 257.924 439.995 257.924 436.232ZM289.476 436.3C289.476 433.489 288.909 431.041 287.776 428.956C286.643 426.871 285.101 425.284 283.152 424.196C281.248 423.063 279.14 422.496 276.828 422.496C274.516 422.496 272.408 423.04 270.504 424.128C268.6 425.216 267.081 426.803 265.948 428.888C264.815 430.973 264.248 433.421 264.248 436.232C264.248 439.088 264.815 441.581 265.948 443.712C267.081 445.797 268.6 447.407 270.504 448.54C272.408 449.628 274.516 450.172 276.828 450.172C279.14 450.172 281.248 449.628 283.152 448.54C285.101 447.407 286.643 445.797 287.776 443.712C288.909 441.581 289.476 439.111 289.476 436.3ZM303.877 436.3C303.877 432.447 304.648 429.092 306.189 426.236C307.73 423.335 309.861 421.091 312.581 419.504C315.346 417.917 318.497 417.124 322.033 417.124C326.612 417.124 330.374 418.235 333.321 420.456C336.313 422.677 338.285 425.76 339.237 429.704H332.573C331.938 427.437 330.692 425.647 328.833 424.332C327.02 423.017 324.753 422.36 322.033 422.36C318.497 422.36 315.641 423.584 313.465 426.032C311.289 428.435 310.201 431.857 310.201 436.3C310.201 440.788 311.289 444.256 313.465 446.704C315.641 449.152 318.497 450.376 322.033 450.376C324.753 450.376 327.02 449.741 328.833 448.472C330.646 447.203 331.893 445.389 332.573 443.032H339.237C338.24 446.84 336.245 449.9 333.253 452.212C330.261 454.479 326.521 455.612 322.033 455.612C318.497 455.612 315.346 454.819 312.581 453.232C309.861 451.645 307.73 449.401 306.189 446.5C304.648 443.599 303.877 440.199 303.877 436.3ZM381.494 434.94C381.494 436.119 381.426 437.365 381.29 438.68H351.506C351.732 442.352 352.979 445.231 355.246 447.316C357.558 449.356 360.346 450.376 363.61 450.376C366.284 450.376 368.506 449.764 370.274 448.54C372.087 447.271 373.356 445.593 374.082 443.508H380.746C379.748 447.089 377.754 450.013 374.762 452.28C371.77 454.501 368.052 455.612 363.61 455.612C360.074 455.612 356.9 454.819 354.09 453.232C351.324 451.645 349.148 449.401 347.562 446.5C345.975 443.553 345.182 440.153 345.182 436.3C345.182 432.447 345.952 429.069 347.494 426.168C349.035 423.267 351.188 421.045 353.954 419.504C356.764 417.917 359.983 417.124 363.61 417.124C367.146 417.124 370.274 417.895 372.994 419.436C375.714 420.977 377.799 423.108 379.25 425.828C380.746 428.503 381.494 431.54 381.494 434.94ZM375.102 433.648C375.102 431.291 374.58 429.273 373.538 427.596C372.495 425.873 371.067 424.581 369.254 423.72C367.486 422.813 365.514 422.36 363.338 422.36C360.21 422.36 357.535 423.357 355.314 425.352C353.138 427.347 351.891 430.112 351.574 433.648H375.102ZM402.854 455.612C399.998 455.612 397.436 455.136 395.17 454.184C392.903 453.187 391.112 451.827 389.798 450.104C388.483 448.336 387.758 446.319 387.622 444.052H394.014C394.195 445.911 395.056 447.429 396.598 448.608C398.184 449.787 400.247 450.376 402.786 450.376C405.143 450.376 407.002 449.855 408.362 448.812C409.722 447.769 410.402 446.455 410.402 444.868C410.402 443.236 409.676 442.035 408.226 441.264C406.775 440.448 404.531 439.655 401.494 438.884C398.728 438.159 396.462 437.433 394.694 436.708C392.971 435.937 391.475 434.827 390.206 433.376C388.982 431.88 388.37 429.931 388.37 427.528C388.37 425.624 388.936 423.879 390.07 422.292C391.203 420.705 392.812 419.459 394.898 418.552C396.983 417.6 399.363 417.124 402.038 417.124C406.163 417.124 409.495 418.167 412.034 420.252C414.572 422.337 415.932 425.193 416.114 428.82H409.926C409.79 426.871 408.996 425.307 407.546 424.128C406.14 422.949 404.236 422.36 401.834 422.36C399.612 422.36 397.844 422.836 396.53 423.788C395.215 424.74 394.558 425.987 394.558 427.528C394.558 428.752 394.943 429.772 395.714 430.588C396.53 431.359 397.527 431.993 398.706 432.492C399.93 432.945 401.607 433.467 403.738 434.056C406.412 434.781 408.588 435.507 410.266 436.232C411.943 436.912 413.371 437.955 414.55 439.36C415.774 440.765 416.408 442.601 416.454 444.868C416.454 446.908 415.887 448.744 414.754 450.376C413.62 452.008 412.011 453.3 409.926 454.252C407.886 455.159 405.528 455.612 402.854 455.612ZM438.381 455.612C435.525 455.612 432.964 455.136 430.697 454.184C428.43 453.187 426.64 451.827 425.325 450.104C424.01 448.336 423.285 446.319 423.149 444.052H429.541C429.722 445.911 430.584 447.429 432.125 448.608C433.712 449.787 435.774 450.376 438.313 450.376C440.67 450.376 442.529 449.855 443.889 448.812C445.249 447.769 445.929 446.455 445.929 444.868C445.929 443.236 445.204 442.035 443.753 441.264C442.302 440.448 440.058 439.655 437.021 438.884C434.256 438.159 431.989 437.433 430.221 436.708C428.498 435.937 427.002 434.827 425.733 433.376C424.509 431.88 423.897 429.931 423.897 427.528C423.897 425.624 424.464 423.879 425.597 422.292C426.73 420.705 428.34 419.459 430.425 418.552C432.51 417.6 434.89 417.124 437.565 417.124C441.69 417.124 445.022 418.167 447.561 420.252C450.1 422.337 451.46 425.193 451.641 428.82H445.453C445.317 426.871 444.524 425.307 443.073 424.128C441.668 422.949 439.764 422.36 437.361 422.36C435.14 422.36 433.372 422.836 432.057 423.788C430.742 424.74 430.085 425.987 430.085 427.528C430.085 428.752 430.47 429.772 431.241 430.588C432.057 431.359 433.054 431.993 434.233 432.492C435.457 432.945 437.134 433.467 439.265 434.056C441.94 434.781 444.116 435.507 445.793 436.232C447.47 436.912 448.898 437.955 450.077 439.36C451.301 440.765 451.936 442.601 451.981 444.868C451.981 446.908 451.414 448.744 450.281 450.376C449.148 452.008 447.538 453.3 445.453 454.252C443.413 455.159 441.056 455.612 438.381 455.612ZM463.912 411.684C462.734 411.684 461.736 411.276 460.92 410.46C460.104 409.644 459.696 408.647 459.696 407.468C459.696 406.289 460.104 405.292 460.92 404.476C461.736 403.66 462.734 403.252 463.912 403.252C465.046 403.252 465.998 403.66 466.768 404.476C467.584 405.292 467.992 406.289 467.992 407.468C467.992 408.647 467.584 409.644 466.768 410.46C465.998 411.276 465.046 411.684 463.912 411.684ZM466.904 417.736V455H460.716V417.736H466.904ZM483.639 424.672C484.908 422.451 486.767 420.637 489.215 419.232C491.663 417.827 494.451 417.124 497.579 417.124C500.934 417.124 503.948 417.917 506.623 419.504C509.298 421.091 511.406 423.335 512.947 426.236C514.488 429.092 515.259 432.424 515.259 436.232C515.259 439.995 514.488 443.349 512.947 446.296C511.406 449.243 509.275 451.532 506.555 453.164C503.88 454.796 500.888 455.612 497.579 455.612C494.36 455.612 491.527 454.909 489.079 453.504C486.676 452.099 484.863 450.308 483.639 448.132V455H477.451V404.68H483.639V424.672ZM508.935 436.232C508.935 433.421 508.368 430.973 507.235 428.888C506.102 426.803 504.56 425.216 502.611 424.128C500.707 423.04 498.599 422.496 496.287 422.496C494.02 422.496 491.912 423.063 489.963 424.196C488.059 425.284 486.518 426.893 485.339 429.024C484.206 431.109 483.639 433.535 483.639 436.3C483.639 439.111 484.206 441.581 485.339 443.712C486.518 445.797 488.059 447.407 489.963 448.54C491.912 449.628 494.02 450.172 496.287 450.172C498.599 450.172 500.707 449.628 502.611 448.54C504.56 447.407 506.102 445.797 507.235 443.712C508.368 441.581 508.935 439.088 508.935 436.232ZM526.6 411.684C525.421 411.684 524.424 411.276 523.608 410.46C522.792 409.644 522.384 408.647 522.384 407.468C522.384 406.289 522.792 405.292 523.608 404.476C524.424 403.66 525.421 403.252 526.6 403.252C527.733 403.252 528.685 403.66 529.456 404.476C530.272 405.292 530.68 406.289 530.68 407.468C530.68 408.647 530.272 409.644 529.456 410.46C528.685 411.276 527.733 411.684 526.6 411.684ZM529.592 417.736V455H523.404V417.736H529.592ZM546.326 404.68V455H540.138V404.68H546.326ZM560.069 411.684C558.89 411.684 557.893 411.276 557.077 410.46C556.261 409.644 555.853 408.647 555.853 407.468C555.853 406.289 556.261 405.292 557.077 404.476C557.893 403.66 558.89 403.252 560.069 403.252C561.202 403.252 562.154 403.66 562.925 404.476C563.741 405.292 564.149 406.289 564.149 407.468C564.149 408.647 563.741 409.644 562.925 410.46C562.154 411.276 561.202 411.684 560.069 411.684ZM563.061 417.736V455H556.873V417.736H563.061ZM571.295 436.232C571.295 432.424 572.066 429.092 573.607 426.236C575.148 423.335 577.256 421.091 579.931 419.504C582.651 417.917 585.688 417.124 589.043 417.124C591.944 417.124 594.642 417.804 597.135 419.164C599.628 420.479 601.532 422.224 602.847 424.4V404.68H609.103V455H602.847V447.996C601.623 450.217 599.81 452.053 597.407 453.504C595.004 454.909 592.194 455.612 588.975 455.612C585.666 455.612 582.651 454.796 579.931 453.164C577.256 451.532 575.148 449.243 573.607 446.296C572.066 443.349 571.295 439.995 571.295 436.232ZM602.847 436.3C602.847 433.489 602.28 431.041 601.147 428.956C600.014 426.871 598.472 425.284 596.523 424.196C594.619 423.063 592.511 422.496 590.199 422.496C587.887 422.496 585.779 423.04 583.875 424.128C581.971 425.216 580.452 426.803 579.319 428.888C578.186 430.973 577.619 433.421 577.619 436.232C577.619 439.088 578.186 441.581 579.319 443.712C580.452 445.797 581.971 447.407 583.875 448.54C585.779 449.628 587.887 450.172 590.199 450.172C592.511 450.172 594.619 449.628 596.523 448.54C598.472 447.407 600.014 445.797 601.147 443.712C602.28 441.581 602.847 439.111 602.847 436.3ZM617.248 436.232C617.248 432.424 618.019 429.092 619.56 426.236C621.102 423.335 623.21 421.091 625.884 419.504C628.604 417.917 631.619 417.124 634.928 417.124C638.192 417.124 641.026 417.827 643.428 419.232C645.831 420.637 647.622 422.405 648.8 424.536V417.736H655.056V455H648.8V448.064C647.576 450.24 645.74 452.053 643.292 453.504C640.89 454.909 638.079 455.612 634.86 455.612C631.551 455.612 628.559 454.796 625.884 453.164C623.21 451.532 621.102 449.243 619.56 446.296C618.019 443.349 617.248 439.995 617.248 436.232ZM648.8 436.3C648.8 433.489 648.234 431.041 647.1 428.956C645.967 426.871 644.426 425.284 642.476 424.196C640.572 423.063 638.464 422.496 636.152 422.496C633.84 422.496 631.732 423.04 629.828 424.128C627.924 425.216 626.406 426.803 625.272 428.888C624.139 430.973 623.572 433.421 623.572 436.232C623.572 439.088 624.139 441.581 625.272 443.712C626.406 445.797 627.924 447.407 629.828 448.54C631.732 449.628 633.84 450.172 636.152 450.172C638.464 450.172 640.572 449.628 642.476 448.54C644.426 447.407 645.967 445.797 647.1 443.712C648.234 441.581 648.8 439.111 648.8 436.3ZM663.201 436.232C663.201 432.424 663.972 429.092 665.513 426.236C667.055 423.335 669.163 421.091 671.837 419.504C674.557 417.917 677.595 417.124 680.949 417.124C683.851 417.124 686.548 417.804 689.041 419.164C691.535 420.479 693.439 422.224 694.753 424.4V404.68H701.009V455H694.753V447.996C693.529 450.217 691.716 452.053 689.313 453.504C686.911 454.909 684.1 455.612 680.881 455.612C677.572 455.612 674.557 454.796 671.837 453.164C669.163 451.532 667.055 449.243 665.513 446.296C663.972 443.349 663.201 439.995 663.201 436.232ZM694.753 436.3C694.753 433.489 694.187 431.041 693.053 428.956C691.92 426.871 690.379 425.284 688.429 424.196C686.525 423.063 684.417 422.496 682.105 422.496C679.793 422.496 677.685 423.04 675.781 424.128C673.877 425.216 672.359 426.803 671.225 428.888C670.092 430.973 669.525 433.421 669.525 436.232C669.525 439.088 670.092 441.581 671.225 443.712C672.359 445.797 673.877 447.407 675.781 448.54C677.685 449.628 679.793 450.172 682.105 450.172C684.417 450.172 686.525 449.628 688.429 448.54C690.379 447.407 691.92 445.797 693.053 443.712C694.187 441.581 694.753 439.111 694.753 436.3ZM745.466 434.94C745.466 436.119 745.398 437.365 745.262 438.68H715.478C715.705 442.352 716.952 445.231 719.218 447.316C721.53 449.356 724.318 450.376 727.582 450.376C730.257 450.376 732.478 449.764 734.246 448.54C736.06 447.271 737.329 445.593 738.054 443.508H744.718C743.721 447.089 741.726 450.013 738.734 452.28C735.742 454.501 732.025 455.612 727.582 455.612C724.046 455.612 720.873 454.819 718.062 453.232C715.297 451.645 713.121 449.401 711.534 446.5C709.948 443.553 709.154 440.153 709.154 436.3C709.154 432.447 709.925 429.069 711.466 426.168C713.008 423.267 715.161 421.045 717.926 419.504C720.737 417.917 723.956 417.124 727.582 417.124C731.118 417.124 734.246 417.895 736.966 419.436C739.686 420.977 741.772 423.108 743.222 425.828C744.718 428.503 745.466 431.54 745.466 434.94ZM739.074 433.648C739.074 431.291 738.553 429.273 737.51 427.596C736.468 425.873 735.04 424.581 733.226 423.72C731.458 422.813 729.486 422.36 727.31 422.36C724.182 422.36 721.508 423.357 719.286 425.352C717.11 427.347 715.864 430.112 715.546 433.648H739.074Z" fill="#F2F2F2"/>
</g>
<g filter="url(#filter2_d_296_114)">
<rect x="401" y="599" width="738" height="216" rx="20" fill="#202020"/>
<g clip-path="url(#clip3_296_114)">
<path d="M1089.94 711.167C1089.94 720.744 1086.14 729.929 1079.37 736.701C1072.6 743.473 1063.41 747.278 1053.83 747.278C1044.26 747.278 1035.07 743.473 1028.3 736.701C1021.53 729.929 1017.72 720.744 1017.72 711.167C1017.72 701.59 1021.53 692.405 1028.3 685.632C1035.07 678.86 1044.26 675.056 1053.83 675.056C1063.41 675.056 1072.6 678.86 1079.37 685.632C1086.14 692.405 1089.94 701.59 1089.94 711.167V711.167ZM1072.02 697.49C1071.7 697.168 1071.32 696.915 1070.9 696.746C1070.47 696.576 1070.02 696.494 1069.57 696.503C1069.11 696.512 1068.66 696.613 1068.25 696.8C1067.83 696.986 1067.46 697.255 1067.15 697.589L1051.47 717.563L1042.02 708.111C1041.38 707.513 1040.53 707.187 1039.66 707.203C1038.78 707.218 1037.94 707.574 1037.32 708.194C1036.7 708.814 1036.35 709.651 1036.33 710.528C1036.32 711.405 1036.64 712.254 1037.24 712.896L1049.18 724.844C1049.51 725.165 1049.89 725.418 1050.31 725.588C1050.73 725.758 1051.18 725.841 1051.64 725.833C1052.09 725.824 1052.54 725.724 1052.96 725.539C1053.37 725.354 1053.74 725.086 1054.05 724.754L1072.07 702.229C1072.69 701.591 1073.03 700.736 1073.02 699.85C1073.01 698.964 1072.66 698.117 1072.03 697.49H1072.02Z" fill="#0CE683"/>
</g>
<path d="M462.424 703.788C463.512 701.657 465.053 700.003 467.048 698.824C469.088 697.645 471.559 697.056 474.46 697.056V703.448H472.828C465.892 703.448 462.424 707.211 462.424 714.736V735H456.236V697.736H462.424V703.788ZM515.603 714.94C515.603 716.119 515.535 717.365 515.399 718.68H485.615C485.842 722.352 487.089 725.231 489.355 727.316C491.667 729.356 494.455 730.376 497.719 730.376C500.394 730.376 502.615 729.764 504.383 728.54C506.197 727.271 507.466 725.593 508.191 723.508H514.855C513.858 727.089 511.863 730.013 508.871 732.28C505.879 734.501 502.162 735.612 497.719 735.612C494.183 735.612 491.01 734.819 488.199 733.232C485.434 731.645 483.258 729.401 481.671 726.5C480.085 723.553 479.291 720.153 479.291 716.3C479.291 712.447 480.062 709.069 481.603 706.168C483.145 703.267 485.298 701.045 488.063 699.504C490.874 697.917 494.093 697.124 497.719 697.124C501.255 697.124 504.383 697.895 507.103 699.436C509.823 700.977 511.909 703.108 513.359 705.828C514.855 708.503 515.603 711.54 515.603 714.94ZM509.211 713.648C509.211 711.291 508.69 709.273 507.647 707.596C506.605 705.873 505.177 704.581 503.363 703.72C501.595 702.813 499.623 702.36 497.447 702.36C494.319 702.36 491.645 703.357 489.423 705.352C487.247 707.347 486.001 710.112 485.683 713.648H509.211ZM536.963 735.612C534.107 735.612 531.546 735.136 529.279 734.184C527.012 733.187 525.222 731.827 523.907 730.104C522.592 728.336 521.867 726.319 521.731 724.052H528.123C528.304 725.911 529.166 727.429 530.707 728.608C532.294 729.787 534.356 730.376 536.895 730.376C539.252 730.376 541.111 729.855 542.471 728.812C543.831 727.769 544.511 726.455 544.511 724.868C544.511 723.236 543.786 722.035 542.335 721.264C540.884 720.448 538.64 719.655 535.603 718.884C532.838 718.159 530.571 717.433 528.803 716.708C527.08 715.937 525.584 714.827 524.315 713.376C523.091 711.88 522.479 709.931 522.479 707.528C522.479 705.624 523.046 703.879 524.179 702.292C525.312 700.705 526.922 699.459 529.007 698.552C531.092 697.6 533.472 697.124 536.147 697.124C540.272 697.124 543.604 698.167 546.143 700.252C548.682 702.337 550.042 705.193 550.223 708.82H544.035C543.899 706.871 543.106 705.307 541.655 704.128C540.25 702.949 538.346 702.36 535.943 702.36C533.722 702.36 531.954 702.836 530.639 703.788C529.324 704.74 528.667 705.987 528.667 707.528C528.667 708.752 529.052 709.772 529.823 710.588C530.639 711.359 531.636 711.993 532.815 712.492C534.039 712.945 535.716 713.467 537.847 714.056C540.522 714.781 542.698 715.507 544.375 716.232C546.052 716.912 547.48 717.955 548.659 719.36C549.883 720.765 550.518 722.601 550.563 724.868C550.563 726.908 549.996 728.744 548.863 730.376C547.73 732.008 546.12 733.3 544.035 734.252C541.995 735.159 539.638 735.612 536.963 735.612ZM565.487 704.604C566.711 702.473 568.524 700.705 570.927 699.3C573.375 697.849 576.208 697.124 579.427 697.124C582.736 697.124 585.728 697.917 588.402 699.504C591.122 701.091 593.253 703.335 594.795 706.236C596.336 709.092 597.107 712.424 597.107 716.232C597.107 719.995 596.336 723.349 594.795 726.296C593.253 729.243 591.122 731.532 588.402 733.164C585.728 734.796 582.736 735.612 579.427 735.612C576.253 735.612 573.443 734.909 570.995 733.504C568.592 732.053 566.756 730.263 565.487 728.132V752.68H559.299V697.736H565.487V704.604ZM590.783 716.232C590.783 713.421 590.216 710.973 589.083 708.888C587.949 706.803 586.408 705.216 584.459 704.128C582.555 703.04 580.447 702.496 578.135 702.496C575.868 702.496 573.76 703.063 571.811 704.196C569.907 705.284 568.365 706.893 567.187 709.024C566.053 711.109 565.487 713.535 565.487 716.3C565.487 719.111 566.053 721.581 567.187 723.712C568.365 725.797 569.907 727.407 571.811 728.54C573.76 729.628 575.868 730.172 578.135 730.172C580.447 730.172 582.555 729.628 584.459 728.54C586.408 727.407 587.949 725.797 589.083 723.712C590.216 721.581 590.783 719.088 590.783 716.232ZM621.504 735.612C618.013 735.612 614.84 734.819 611.984 733.232C609.173 731.645 606.952 729.401 605.32 726.5C603.733 723.553 602.94 720.153 602.94 716.3C602.94 712.492 603.756 709.137 605.388 706.236C607.065 703.289 609.332 701.045 612.188 699.504C615.044 697.917 618.24 697.124 621.776 697.124C625.312 697.124 628.508 697.917 631.364 699.504C634.22 701.045 636.464 703.267 638.096 706.168C639.773 709.069 640.612 712.447 640.612 716.3C640.612 720.153 639.75 723.553 638.028 726.5C636.35 729.401 634.061 731.645 631.16 733.232C628.258 734.819 625.04 735.612 621.504 735.612ZM621.504 730.172C623.725 730.172 625.81 729.651 627.76 728.608C629.709 727.565 631.273 726.001 632.452 723.916C633.676 721.831 634.288 719.292 634.288 716.3C634.288 713.308 633.698 710.769 632.52 708.684C631.341 706.599 629.8 705.057 627.896 704.06C625.992 703.017 623.929 702.496 621.708 702.496C619.441 702.496 617.356 703.017 615.452 704.06C613.593 705.057 612.097 706.599 610.964 708.684C609.83 710.769 609.264 713.308 609.264 716.3C609.264 719.337 609.808 721.899 610.896 723.984C612.029 726.069 613.525 727.633 615.384 728.676C617.242 729.673 619.282 730.172 621.504 730.172ZM666.904 697.056C671.437 697.056 675.109 698.439 677.92 701.204C680.73 703.924 682.136 707.868 682.136 713.036V735H676.016V713.92C676.016 710.203 675.086 707.369 673.228 705.42C671.369 703.425 668.83 702.428 665.612 702.428C662.348 702.428 659.741 703.448 657.792 705.488C655.888 707.528 654.936 710.497 654.936 714.396V735H648.748V697.736H654.936V703.04C656.16 701.136 657.814 699.663 659.9 698.62C662.03 697.577 664.365 697.056 666.904 697.056ZM705.436 735.612C702.58 735.612 700.018 735.136 697.752 734.184C695.485 733.187 693.694 731.827 692.38 730.104C691.065 728.336 690.34 726.319 690.204 724.052H696.596C696.777 725.911 697.638 727.429 699.18 728.608C700.766 729.787 702.829 730.376 705.368 730.376C707.725 730.376 709.584 729.855 710.944 728.812C712.304 727.769 712.984 726.455 712.984 724.868C712.984 723.236 712.258 722.035 710.808 721.264C709.357 720.448 707.113 719.655 704.076 718.884C701.31 718.159 699.044 717.433 697.276 716.708C695.553 715.937 694.057 714.827 692.788 713.376C691.564 711.88 690.952 709.931 690.952 707.528C690.952 705.624 691.518 703.879 692.652 702.292C693.785 700.705 695.394 699.459 697.48 698.552C699.565 697.6 701.945 697.124 704.62 697.124C708.745 697.124 712.077 698.167 714.616 700.252C717.154 702.337 718.514 705.193 718.696 708.82H712.508C712.372 706.871 711.578 705.307 710.128 704.128C708.722 702.949 706.818 702.36 704.416 702.36C702.194 702.36 700.426 702.836 699.112 703.788C697.797 704.74 697.14 705.987 697.14 707.528C697.14 708.752 697.525 709.772 698.296 710.588C699.112 711.359 700.109 711.993 701.288 712.492C702.512 712.945 704.189 713.467 706.32 714.056C708.994 714.781 711.17 715.507 712.848 716.232C714.525 716.912 715.953 717.955 717.132 719.36C718.356 720.765 718.99 722.601 719.036 724.868C719.036 726.908 718.469 728.744 717.336 730.376C716.202 732.008 714.593 733.3 712.508 734.252C710.468 735.159 708.11 735.612 705.436 735.612ZM730.967 691.684C729.788 691.684 728.791 691.276 727.975 690.46C727.159 689.644 726.751 688.647 726.751 687.468C726.751 686.289 727.159 685.292 727.975 684.476C728.791 683.66 729.788 683.252 730.967 683.252C732.1 683.252 733.052 683.66 733.823 684.476C734.639 685.292 735.047 686.289 735.047 687.468C735.047 688.647 734.639 689.644 733.823 690.46C733.052 691.276 732.1 691.684 730.967 691.684ZM733.959 697.736V735H727.771V697.736H733.959ZM758.378 729.288L769.938 697.736H776.534L761.914 735H754.706L740.086 697.736H746.75L758.378 729.288ZM785.819 691.684C784.64 691.684 783.643 691.276 782.827 690.46C782.011 689.644 781.603 688.647 781.603 687.468C781.603 686.289 782.011 685.292 782.827 684.476C783.643 683.66 784.64 683.252 785.819 683.252C786.952 683.252 787.904 683.66 788.675 684.476C789.491 685.292 789.899 686.289 789.899 687.468C789.899 688.647 789.491 689.644 788.675 690.46C787.904 691.276 786.952 691.684 785.819 691.684ZM788.811 697.736V735H782.623V697.736H788.811ZM797.045 716.232C797.045 712.424 797.816 709.092 799.357 706.236C800.898 703.335 803.006 701.091 805.681 699.504C808.401 697.917 811.438 697.124 814.793 697.124C817.694 697.124 820.392 697.804 822.885 699.164C825.378 700.479 827.282 702.224 828.597 704.4V684.68H834.853V735H828.597V727.996C827.373 730.217 825.56 732.053 823.157 733.504C820.754 734.909 817.944 735.612 814.725 735.612C811.416 735.612 808.401 734.796 805.681 733.164C803.006 731.532 800.898 729.243 799.357 726.296C797.816 723.349 797.045 719.995 797.045 716.232ZM828.597 716.3C828.597 713.489 828.03 711.041 826.897 708.956C825.764 706.871 824.222 705.284 822.273 704.196C820.369 703.063 818.261 702.496 815.949 702.496C813.637 702.496 811.529 703.04 809.625 704.128C807.721 705.216 806.202 706.803 805.069 708.888C803.936 710.973 803.369 713.421 803.369 716.232C803.369 719.088 803.936 721.581 805.069 723.712C806.202 725.797 807.721 727.407 809.625 728.54C811.529 729.628 813.637 730.172 815.949 730.172C818.261 730.172 820.369 729.628 822.273 728.54C824.222 727.407 825.764 725.797 826.897 723.712C828.03 721.581 828.597 719.111 828.597 716.3ZM842.998 716.232C842.998 712.424 843.769 709.092 845.31 706.236C846.852 703.335 848.96 701.091 851.634 699.504C854.354 697.917 857.369 697.124 860.678 697.124C863.942 697.124 866.776 697.827 869.178 699.232C871.581 700.637 873.372 702.405 874.55 704.536V697.736H880.806V735H874.55V728.064C873.326 730.24 871.49 732.053 869.042 733.504C866.64 734.909 863.829 735.612 860.61 735.612C857.301 735.612 854.309 734.796 851.634 733.164C848.96 731.532 846.852 729.243 845.31 726.296C843.769 723.349 842.998 719.995 842.998 716.232ZM874.55 716.3C874.55 713.489 873.984 711.041 872.85 708.956C871.717 706.871 870.176 705.284 868.226 704.196C866.322 703.063 864.214 702.496 861.902 702.496C859.59 702.496 857.482 703.04 855.578 704.128C853.674 705.216 852.156 706.803 851.022 708.888C849.889 710.973 849.322 713.421 849.322 716.232C849.322 719.088 849.889 721.581 851.022 723.712C852.156 725.797 853.674 727.407 855.578 728.54C857.482 729.628 859.59 730.172 861.902 730.172C864.214 730.172 866.322 729.628 868.226 728.54C870.176 727.407 871.717 725.797 872.85 723.712C873.984 721.581 874.55 719.111 874.55 716.3ZM888.951 716.232C888.951 712.424 889.722 709.092 891.263 706.236C892.805 703.335 894.913 701.091 897.587 699.504C900.307 697.917 903.345 697.124 906.699 697.124C909.601 697.124 912.298 697.804 914.791 699.164C917.285 700.479 919.189 702.224 920.503 704.4V684.68H926.759V735H920.503V727.996C919.279 730.217 917.466 732.053 915.063 733.504C912.661 734.909 909.85 735.612 906.631 735.612C903.322 735.612 900.307 734.796 897.587 733.164C894.913 731.532 892.805 729.243 891.263 726.296C889.722 723.349 888.951 719.995 888.951 716.232ZM920.503 716.3C920.503 713.489 919.937 711.041 918.803 708.956C917.67 706.871 916.129 705.284 914.179 704.196C912.275 703.063 910.167 702.496 907.855 702.496C905.543 702.496 903.435 703.04 901.531 704.128C899.627 705.216 898.109 706.803 896.975 708.888C895.842 710.973 895.275 713.421 895.275 716.232C895.275 719.088 895.842 721.581 896.975 723.712C898.109 725.797 899.627 727.407 901.531 728.54C903.435 729.628 905.543 730.172 907.855 730.172C910.167 730.172 912.275 729.628 914.179 728.54C916.129 727.407 917.67 725.797 918.803 723.712C919.937 721.581 920.503 719.111 920.503 716.3ZM971.216 714.94C971.216 716.119 971.148 717.365 971.012 718.68H941.228C941.455 722.352 942.702 725.231 944.968 727.316C947.28 729.356 950.068 730.376 953.332 730.376C956.007 730.376 958.228 729.764 959.996 728.54C961.81 727.271 963.079 725.593 963.804 723.508H970.468C969.471 727.089 967.476 730.013 964.484 732.28C961.492 734.501 957.775 735.612 953.332 735.612C949.796 735.612 946.623 734.819 943.812 733.232C941.047 731.645 938.871 729.401 937.284 726.5C935.698 723.553 934.904 720.153 934.904 716.3C934.904 712.447 935.675 709.069 937.216 706.168C938.758 703.267 940.911 701.045 943.676 699.504C946.487 697.917 949.706 697.124 953.332 697.124C956.868 697.124 959.996 697.895 962.716 699.436C965.436 700.977 967.522 703.108 968.972 705.828C970.468 708.503 971.216 711.54 971.216 714.94ZM964.824 713.648C964.824 711.291 964.303 709.273 963.26 707.596C962.218 705.873 960.79 704.581 958.976 703.72C957.208 702.813 955.236 702.36 953.06 702.36C949.932 702.36 947.258 703.357 945.036 705.352C942.86 707.347 941.614 710.112 941.296 713.648H964.824Z" fill="#F2F2F2"/>
</g>
</g>
<defs>
<filter id="filter0_d_296_114" x="1" y="40" width="738" height="236" filterUnits="userSpaceOnUse" color-interpolation-filters="sRGB">
<feFlood flood-opacity="0" result="BackgroundImageFix"/>
<feColorMatrix in="SourceAlpha" type="matrix" values="0 0 0 0 0 0 0 0 0 0 0 0 0 0 0 0 0 0 127 0" result="hardAlpha"/>
<feOffset/>
<feGaussianBlur stdDeviation="5"/>
<feComposite in2="hardAlpha" operator="out"/>
<feColorMatrix type="matrix" values="0 0 0 0 0 0 0 0 0 0 0 0 0 0 0 0 0 0 0.1 0"/>
<feBlend mode="normal" in2="BackgroundImageFix" result="effect1_dropShadow_296_114"/>
<feBlend mode="normal" in="SourceGraphic" in2="effect1_dropShadow_296_114" result="shape"/>
</filter>
<filter id="filter1_d_296_114" x="191" y="309" width="738" height="236" filterUnits="userSpaceOnUse" color-interpolation-filters="sRGB">
<feFlood flood-opacity="0" result="BackgroundImageFix"/>
<feColorMatrix in="SourceAlpha" type="matrix" values="0 0 0 0 0 0 0 0 0 0 0 0 0 0 0 0 0 0 127 0" result="hardAlpha"/>
<feOffset/>
<feGaussianBlur stdDeviation="5"/>
<feComposite in2="hardAlpha" operator="out"/>
<feColorMatrix type="matrix" values="0 0 0 0 0 0 0 0 0 0 0 0 0 0 0 0 0 0 0.1 0"/>
<feBlend mode="normal" in2="BackgroundImageFix" result="effect1_dropShadow_296_114"/>
<feBlend mode="normal" in="SourceGraphic" in2="effect1_dropShadow_296_114" result="shape"/>
</filter>
<filter id="filter2_d_296_114" x="391" y="589" width="758" height="236" filterUnits="userSpaceOnUse" color-interpolation-filters="sRGB">
<feFlood flood-opacity="0" result="BackgroundImageFix"/>
<feColorMatrix in="SourceAlpha" type="matrix" values="0 0 0 0 0 0 0 0 0 0 0 0 0 0 0 0 0 0 127 0" result="hardAlpha"/>
<feOffset/>
<feGaussianBlur stdDeviation="5"/>
<feComposite in2="hardAlpha" operator="out"/>
<feColorMatrix type="matrix" values="0 0 0 0 0 0 0 0 0 0 0 0 0 0 0 0 0 0 0.1 0"/>
<feBlend mode="normal" in2="BackgroundImageFix" result="effect1_dropShadow_296_114"/>
<feBlend mode="normal" in="SourceGraphic" in2="effect1_dropShadow_296_114" result="shape"/>
</filter>
<clipPath id="clip0_296_114">
<rect width="1145" height="871" fill="white"/>
</clipPath>
<clipPath id="clip1_296_114">
<rect x="607.722" y="126.056" width="72.2222" height="72.2222" rx="20" fill="white"/>
</clipPath>
<clipPath id="clip2_296_114">
<rect x="797.722" y="395.056" width="72.2222" height="72.2222" rx="20" fill="white"/>
</clipPath>
<clipPath id="clip3_296_114">
<rect x="1017.72" y="675.056" width="72.2222" height="72.2222" rx="20" fill="white"/>
</clipPath>
</defs>
</svg>
