<svg width="560" height="580" viewBox="0 0 560 580" fill="none" xmlns="http://www.w3.org/2000/svg">
<rect width="560" height="580" rx="8" fill="#F8F8F8"/>
<path d="M130.003 225.512C131.795 225.512 133.331 224.04 133.331 222.248C133.331 220.456 131.795 218.92 130.003 218.92C128.211 218.92 126.739 220.456 126.739 222.248C126.739 224.04 128.211 225.512 130.003 225.512ZM127.827 265H132.243V234.024H127.827V265ZM145.868 265V245.8C145.868 241.064 149.004 237.224 154.188 237.224C158.86 237.224 161.868 240.296 161.868 245.544V265H166.22V245.864C166.22 241.064 169.292 237.16 174.476 237.16C179.212 237.16 182.156 240.296 182.156 245.608V265H186.444V244.712C186.444 237.544 182.028 233.192 175.308 233.192C170.316 233.192 166.54 235.752 165.132 239.784C163.66 235.752 160.012 233.192 155.148 233.192C150.796 233.192 147.34 235.176 145.804 238.44L145.292 234.024H141.452V265H145.868ZM204.223 265.768C209.471 265.768 213.695 263.464 215.615 259.56L216.191 265H219.903V244.968C219.903 236.776 214.655 233.192 207.487 233.192C199.871 233.192 194.751 237.224 194.751 243.496H198.783C198.783 239.336 201.983 236.904 207.359 236.904C211.903 236.904 215.551 238.824 215.551 244.904V245.928L205.311 246.76C198.079 247.336 193.727 250.92 193.727 256.616C193.727 262.056 197.631 265.768 204.223 265.768ZM205.247 262.184C201.023 262.184 198.207 260.264 198.207 256.488C198.207 253.032 200.575 250.472 206.399 249.96L215.551 249.256V250.92C215.551 257.64 211.775 262.184 205.247 262.184ZM226.652 248.616C226.652 257.064 232.028 264.04 240.86 264.04C246.172 264.04 250.46 261.48 252.572 257.128V264.488C252.572 270.952 248.348 275.24 242.012 275.24C236.444 275.24 232.604 272.296 231.644 267.304H227.228C228.444 274.792 234.012 279.272 241.948 279.272C251.036 279.272 256.924 273.256 256.924 264.04V234.024H253.084L252.636 240.232C250.652 235.688 246.556 233.192 241.18 233.192C232.092 233.192 226.652 240.168 226.652 248.616ZM231.068 248.552C231.068 242.28 234.908 237.096 241.564 237.096C248.348 237.096 252.188 241.96 252.188 248.552C252.188 255.208 248.22 260.072 241.5 260.072C234.972 260.072 231.068 254.888 231.068 248.552ZM279.131 265.768C286.427 265.768 291.227 262.248 292.891 255.72H288.667C287.515 259.816 284.251 261.992 279.195 261.992C272.539 261.992 268.571 257.64 268.251 250.088H292.891V247.912C292.891 239.144 287.195 233.192 278.811 233.192C269.979 233.192 263.963 239.848 263.963 249.512C263.963 259.24 270.043 265.768 279.131 265.768ZM278.811 236.968C284.635 236.968 288.475 240.936 288.475 246.888H268.379C269.147 240.808 272.987 236.968 278.811 236.968ZM304.368 265V245.8C304.368 241.064 307.504 237.224 312.688 237.224C317.36 237.224 320.368 240.296 320.368 245.544V265H324.72V245.864C324.72 241.064 327.792 237.16 332.976 237.16C337.712 237.16 340.656 240.296 340.656 245.608V265H344.944V244.712C344.944 237.544 340.528 233.192 333.808 233.192C328.816 233.192 325.04 235.752 323.632 239.784C322.16 235.752 318.512 233.192 313.648 233.192C309.296 233.192 305.84 235.176 304.304 238.44L303.792 234.024H299.952V265H304.368ZM383.737 265.768C388.921 265.768 393.273 263.464 395.449 258.664L395.897 265H399.737V218.344H395.321V239.912C393.145 235.432 389.049 233.192 383.929 233.192C374.713 233.192 369.401 240.232 369.401 249.576C369.401 258.856 374.713 265.768 383.737 265.768ZM384.505 261.736C377.785 261.736 373.881 256.616 373.881 249.448C373.881 242.344 377.785 237.16 384.505 237.16C391.289 237.16 395.257 242.344 395.257 249.448C395.257 256.616 391.289 261.736 384.505 261.736ZM417.848 265.768C423.096 265.768 427.32 263.464 429.24 259.56L429.816 265H433.528V244.968C433.528 236.776 428.28 233.192 421.112 233.192C413.496 233.192 408.376 237.224 408.376 243.496H412.408C412.408 239.336 415.608 236.904 420.984 236.904C425.528 236.904 429.176 238.824 429.176 244.904V245.928L418.936 246.76C411.704 247.336 407.352 250.92 407.352 256.616C407.352 262.056 411.256 265.768 417.848 265.768ZM418.872 262.184C414.648 262.184 411.832 260.264 411.832 256.488C411.832 253.032 414.2 250.472 420.024 249.96L429.176 249.256V250.92C429.176 257.64 425.4 262.184 418.872 262.184ZM159.91 351.768C165.158 351.768 169.382 349.464 171.302 345.56L171.878 351H175.59V330.968C175.59 322.776 170.342 319.192 163.174 319.192C155.558 319.192 150.438 323.224 150.438 329.496H154.47C154.47 325.336 157.67 322.904 163.046 322.904C167.59 322.904 171.238 324.824 171.238 330.904V331.928L160.998 332.76C153.766 333.336 149.414 336.92 149.414 342.616C149.414 348.056 153.318 351.768 159.91 351.768ZM160.934 348.184C156.71 348.184 153.894 346.264 153.894 342.488C153.894 339.032 156.262 336.472 162.086 335.96L171.238 335.256V336.92C171.238 343.64 167.462 348.184 160.934 348.184ZM184.452 364.504H188.868V345.048C191.044 349.528 195.204 351.768 200.452 351.768C209.604 351.768 214.788 344.728 214.788 335.384C214.788 326.04 209.412 319.192 200.452 319.192C195.268 319.192 190.916 321.496 188.74 326.296L188.292 320.024H184.452V364.504ZM188.932 335.512C188.932 328.344 192.9 323.224 199.684 323.224C206.404 323.224 210.308 328.344 210.308 335.512C210.308 342.616 206.404 347.8 199.684 347.8C192.9 347.8 188.932 342.616 188.932 335.512ZM226.435 351V304.344H222.019V351H226.435ZM238.003 311.512C239.795 311.512 241.331 310.04 241.331 308.248C241.331 306.456 239.795 304.92 238.003 304.92C236.211 304.92 234.739 306.456 234.739 308.248C234.739 310.04 236.211 311.512 238.003 311.512ZM235.827 351H240.243V320.024H235.827V351ZM247.276 335.576C247.276 345.304 253.228 351.768 261.996 351.768C269.036 351.768 274.54 347.608 276.012 341.272H271.532C270.316 345.24 266.604 347.8 261.996 347.8C255.724 347.8 251.628 342.872 251.628 335.512C251.628 327.896 256.044 323.096 262.316 323.096C266.604 323.096 270.316 325.464 271.468 329.752H275.884C274.668 323.352 269.42 319.192 262.252 319.192C253.228 319.192 247.276 325.848 247.276 335.576ZM291.598 351.768C296.846 351.768 301.07 349.464 302.99 345.56L303.566 351H307.278V330.968C307.278 322.776 302.03 319.192 294.862 319.192C287.246 319.192 282.126 323.224 282.126 329.496H286.158C286.158 325.336 289.358 322.904 294.734 322.904C299.278 322.904 302.926 324.824 302.926 330.904V331.928L292.686 332.76C285.454 333.336 281.102 336.92 281.102 342.616C281.102 348.056 285.006 351.768 291.598 351.768ZM292.622 348.184C288.398 348.184 285.582 346.264 285.582 342.488C285.582 339.032 287.95 336.472 293.774 335.96L302.926 335.256V336.92C302.926 343.64 299.15 348.184 292.622 348.184ZM313.963 335.576C313.963 344.792 319.275 351.064 327.275 351.704L325.739 354.968L326.379 356.568C327.659 355.992 328.299 355.8 329.515 355.8C331.051 355.8 332.075 356.504 332.075 357.912C332.075 359.32 330.731 360.088 329.067 360.088C327.787 360.088 326.635 359.704 325.483 359.064V361.752C326.571 362.456 327.787 362.712 329.451 362.712C332.395 362.712 335.147 361.112 335.147 357.784C335.147 355.032 333.163 353.56 330.731 353.56C330.091 353.56 329.515 353.688 328.811 353.88L329.835 351.704C336.299 351.32 341.291 347.288 342.699 341.272H338.219C337.003 345.24 333.291 347.8 328.683 347.8C322.411 347.8 318.315 342.872 318.315 335.512C318.315 327.896 322.731 323.096 329.003 323.096C333.291 323.096 337.003 325.464 338.155 329.752H342.571C341.355 323.352 336.107 319.192 328.939 319.192C319.915 319.192 313.963 325.848 313.963 335.576ZM356.045 315.352C356.045 313.112 356.749 311.896 358.093 311.896C360.269 311.896 361.933 315.352 365.581 315.352C368.973 315.352 370.829 312.984 370.637 308.568H367.501C367.501 310.872 366.861 312.024 365.325 312.024C362.701 312.024 361.037 308.568 357.517 308.568C354.445 308.568 352.589 311.128 352.845 315.352H356.045ZM358.285 351.768C363.533 351.768 367.757 349.464 369.677 345.56L370.253 351H373.965V330.968C373.965 322.776 368.717 319.192 361.549 319.192C353.933 319.192 348.813 323.224 348.813 329.496H352.845C352.845 325.336 356.045 322.904 361.421 322.904C365.965 322.904 369.613 324.824 369.613 330.904V331.928L359.373 332.76C352.141 333.336 347.789 336.92 347.789 342.616C347.789 348.056 351.693 351.768 358.285 351.768ZM359.309 348.184C355.085 348.184 352.269 346.264 352.269 342.488C352.269 339.032 354.637 336.472 360.461 335.96L369.613 335.256V336.92C369.613 343.64 365.837 348.184 359.309 348.184ZM380.651 335.512C380.651 344.92 387.307 351.768 396.395 351.768C405.483 351.768 412.139 344.92 412.139 335.512C412.139 326.04 405.483 319.192 396.395 319.192C387.307 319.192 380.651 326.04 380.651 335.512ZM385.131 335.448C385.131 328.28 389.739 323.16 396.395 323.16C402.987 323.16 407.659 328.28 407.659 335.448C407.659 342.744 402.987 347.8 396.395 347.8C389.739 347.8 385.131 342.744 385.131 335.448Z" fill="#C9C9C9"/>
</svg>
