<svg width="646" height="96" viewBox="0 0 646 96" fill="none" xmlns="http://www.w3.org/2000/svg">
<path d="M0.264038 48.192C0.264038 63.264 9.67204 73.248 24.072 73.248C36.456 73.248 45.672 65.664 47.112 54.624H35.304C34.056 59.808 29.928 62.688 24.072 62.688C16.584 62.688 11.976 57.12 11.976 48.192C11.976 39.264 16.968 33.6 24.456 33.6C30.024 33.6 33.96 36.384 35.304 41.76H47.016C45.768 30.336 36.936 23.136 23.976 23.136C9.96004 23.136 0.264038 33.504 0.264038 48.192Z" fill="#F5F5F5"/>
<path d="M63.7013 72V46.08C63.7013 38.976 68.0213 33.792 75.4133 33.792C81.3653 33.792 85.3013 37.632 85.3013 45.6V72H97.0133V42.816C97.0133 30.528 90.8693 23.136 79.1573 23.136C72.3413 23.136 66.7733 26.112 63.7973 30.72V0.575989H51.9893V72H63.7013Z" fill="#F5F5F5"/>
<path d="M125.897 73.248C138.281 73.248 146.921 67.008 148.937 56.64H138.089C136.745 61.152 132.521 63.648 126.089 63.648C118.313 63.648 113.897 59.424 113.033 51.072L148.745 50.976V47.424C148.745 32.64 139.721 23.136 125.513 23.136C111.593 23.136 101.897 33.408 101.897 48.288C101.897 62.976 111.785 73.248 125.897 73.248ZM125.609 32.736C132.617 32.736 137.129 37.056 137.129 43.584H113.321C114.473 36.48 118.697 32.736 125.609 32.736Z" fill="#F5F5F5"/>
<path d="M151.494 48.192C151.494 63.264 160.902 73.248 175.302 73.248C187.686 73.248 196.902 65.664 198.342 54.624H186.534C185.286 59.808 181.158 62.688 175.302 62.688C167.814 62.688 163.206 57.12 163.206 48.192C163.206 39.264 168.198 33.6 175.686 33.6C181.254 33.6 185.19 36.384 186.534 41.76H198.246C196.998 30.336 188.166 23.136 175.206 23.136C161.19 23.136 151.494 33.504 151.494 48.192Z" fill="#F5F5F5"/>
<path d="M215.027 72V59.232L221.939 52.032L234.323 72H247.763L230.099 43.392L248.147 24.576H233.459L215.027 44.448V0.575989H203.411V72H215.027Z" fill="#F5F5F5"/>
<path d="M442.048 93.984H453.76V65.664C456.736 70.464 462.88 73.248 469.984 73.248C484.096 73.248 492.16 62.496 492.16 47.712C492.16 32.832 483.328 23.136 469.984 23.136C462.784 23.136 456.544 26.304 453.664 31.776L452.896 24.576H442.048V93.984ZM453.856 48.288C453.856 39.744 459.136 33.792 467.2 33.792C475.456 33.792 480.352 39.84 480.352 48.288C480.352 56.736 475.456 62.688 467.2 62.688C459.136 62.688 453.856 56.832 453.856 48.288Z" fill="#F5F5F5"/>
<path d="M511.758 73.248C519.15 73.248 525.582 69.888 527.598 64.992L528.462 72H538.734V43.2C538.734 30.048 530.862 23.136 518.094 23.136C505.23 23.136 496.782 29.856 496.782 40.128H506.766C506.766 35.136 510.606 32.256 517.518 32.256C523.47 32.256 527.31 34.848 527.31 41.28V42.336L513.102 43.392C501.87 44.256 495.534 49.728 495.534 58.464C495.534 67.392 501.678 73.248 511.758 73.248ZM515.598 64.416C510.318 64.416 507.438 62.304 507.438 57.984C507.438 54.144 510.222 51.744 517.518 51.072L527.406 50.304V52.8C527.406 60.096 522.798 64.416 515.598 64.416Z" fill="#F5F5F5"/>
<path d="M543.711 47.232C543.711 60.96 552.543 71.04 565.983 71.04C572.799 71.04 578.655 68.256 581.631 63.84V71.712C581.631 79.584 576.447 84.672 568.383 84.672C561.183 84.672 556.479 81.024 555.711 74.88H543.999C545.439 87.552 554.751 95.328 568.383 95.328C583.743 95.328 593.247 85.44 593.247 69.6V24.576H582.399L581.727 31.104C578.943 26.016 573.375 23.04 566.271 23.04C552.735 23.04 543.711 33.408 543.711 47.232ZM555.519 46.944C555.519 39.168 560.511 33.312 568.287 33.312C576.447 33.312 581.343 38.88 581.343 46.944C581.343 55.2 576.351 60.864 568.287 60.864C560.607 60.864 555.519 54.912 555.519 46.944Z" fill="#F5F5F5"/>
<path d="M622.744 73.248C635.128 73.248 643.768 67.008 645.784 56.64H634.936C633.592 61.152 629.368 63.648 622.936 63.648C615.16 63.648 610.744 59.424 609.88 51.072L645.592 50.976V47.424C645.592 32.64 636.568 23.136 622.36 23.136C608.44 23.136 598.744 33.408 598.744 48.288C598.744 62.976 608.632 73.248 622.744 73.248ZM622.456 32.736C629.464 32.736 633.976 37.056 633.976 43.584H610.168C611.32 36.48 615.544 32.736 622.456 32.736Z" fill="#F5F5F5"/>
<path d="M339 49C339 58.3888 331.613 66 322.5 66C313.387 66 306 58.3888 306 49C306 39.6112 313.387 32 322.5 32C331.613 32 339 39.6112 339 49Z" fill="url(#paint0_linear_5_117)"/>
<path d="M250.92 93.984C253.512 94.656 256.392 95.04 259.656 95.04C267.432 95.04 272.424 91.392 275.976 82.56L299.208 24.576H287.112L274.248 59.136L262.056 24.576H249.672L268.776 74.016L267.432 77.568C265.416 83.136 262.536 84.192 257.928 84.192H250.92V93.984Z" fill="url(#paint1_linear_5_117)"/>
<path d="M297.08 48.192C297.08 62.976 307.736 73.152 322.424 73.152C337.112 73.152 347.768 62.976 347.768 48.192C347.768 33.408 337.112 23.232 322.424 23.232C307.736 23.232 297.08 33.408 297.08 48.192ZM308.792 48.192C308.792 39.552 314.36 33.696 322.424 33.696C330.488 33.696 336.056 39.552 336.056 48.192C336.056 56.832 330.488 62.688 322.424 62.688C314.36 62.688 308.792 56.832 308.792 48.192Z" fill="url(#paint2_linear_5_117)"/>
<path d="M384.247 24.576V49.44C384.247 58.464 380.695 62.784 373.303 62.784C366.775 62.784 363.223 59.136 363.223 50.112V24.576H351.511V54.24C351.511 65.856 357.943 73.248 368.887 73.248C375.223 73.248 381.367 70.176 384.247 65.664L385.111 72H395.959V24.576H384.247Z" fill="url(#paint3_linear_5_117)"/>
<path d="M433.975 24.384C432.055 23.904 430.424 23.712 428.792 23.712C422.456 23.712 417.943 26.88 415.927 31.584L415.255 24.672H404.215V72H415.927V48.96C415.927 39.744 421.208 35.232 429.656 35.232H433.975V24.384Z" fill="url(#paint4_linear_5_117)"/>
<path fill-rule="evenodd" clip-rule="evenodd" d="M343.424 27.538L350.053 34.8362L320.419 67.462L302.947 48.2255L309.576 40.9274L320.419 52.8657L343.424 27.538Z" fill="#F8F8F8"/>
<defs>
<linearGradient id="paint0_linear_5_117" x1="322.5" y1="32" x2="322.5" y2="66" gradientUnits="userSpaceOnUse">
<stop stop-color="#0CE683"/>
<stop offset="1" stop-color="#30DF8A"/>
</linearGradient>
<linearGradient id="paint1_linear_5_117" x1="342.5" y1="21" x2="342.5" y2="74.5" gradientUnits="userSpaceOnUse">
<stop stop-color="#00FF8D"/>
<stop offset="1" stop-color="#38DB8A"/>
</linearGradient>
<linearGradient id="paint2_linear_5_117" x1="342.5" y1="21" x2="342.5" y2="74.5" gradientUnits="userSpaceOnUse">
<stop stop-color="#00FF8D"/>
<stop offset="1" stop-color="#38DB8A"/>
</linearGradient>
<linearGradient id="paint3_linear_5_117" x1="342.5" y1="21" x2="342.5" y2="74.5" gradientUnits="userSpaceOnUse">
<stop stop-color="#00FF8D"/>
<stop offset="1" stop-color="#38DB8A"/>
</linearGradient>
<linearGradient id="paint4_linear_5_117" x1="342.5" y1="21" x2="342.5" y2="74.5" gradientUnits="userSpaceOnUse">
<stop stop-color="#00FF8D"/>
<stop offset="1" stop-color="#38DB8A"/>
</linearGradient>
</defs>
</svg>
