<svg width="74" height="83" viewBox="0 0 74 83" fill="none" xmlns="http://www.w3.org/2000/svg">
<path d="M55 46.5C55 58.3741 45.598 68 34 68C22.402 68 13 58.3741 13 46.5C13 34.6259 22.402 25 34 25C45.598 25 55 34.6259 55 46.5Z" fill="#19E385"/>
<path d="M0.352051 45.256C0.352051 64.968 14.5601 78.536 34.1441 78.536C53.7281 78.536 67.9361 64.968 67.9361 45.256C67.9361 25.544 53.7281 11.976 34.1441 11.976C14.5601 11.976 0.352051 25.544 0.352051 45.256ZM15.9681 45.256C15.9681 33.736 23.3921 25.928 34.1441 25.928C44.8961 25.928 52.3201 33.736 52.3201 45.256C52.3201 56.776 44.8961 64.584 34.1441 64.584C23.3921 64.584 15.9681 56.776 15.9681 45.256Z" fill="url(#paint0_linear_33_60)"/>
<path fill-rule="evenodd" clip-rule="evenodd" d="M60.4553 17.287L68.9448 26.6062L30.9933 68.2669L8.6167 43.7034L17.1062 34.3842L30.9933 49.6285L60.4553 17.287Z" fill="#F8F8F8"/>
<defs>
<linearGradient id="paint0_linear_33_60" x1="34.5" y1="8.86923" x2="34.5" y2="80.0654" gradientUnits="userSpaceOnUse">
<stop stop-color="#00FF8D"/>
<stop offset="1" stop-color="#38DB8A"/>
</linearGradient>
</defs>
</svg>
