<svg width="652" height="130" viewBox="0 0 652 130" fill="none" xmlns="http://www.w3.org/2000/svg">
<path d="M3.264 78.192C3.264 93.264 12.672 103.248 27.072 103.248C39.456 103.248 48.672 95.664 50.112 84.624H38.304C37.056 89.808 32.928 92.688 27.072 92.688C19.584 92.688 14.976 87.12 14.976 78.192C14.976 69.264 19.968 63.6 27.456 63.6C33.024 63.6 36.96 66.384 38.304 71.76H50.016C48.768 60.336 39.936 53.136 26.976 53.136C12.96 53.136 3.264 63.504 3.264 78.192ZM66.7013 102V76.08C66.7013 68.976 71.0213 63.792 78.4133 63.792C84.3653 63.792 88.3013 67.632 88.3013 75.6V102H100.013V72.816C100.013 60.528 93.8693 53.136 82.1573 53.136C75.3413 53.136 69.7733 56.112 66.7973 60.72V30.576H54.9892V102H66.7013ZM128.897 103.248C141.281 103.248 149.921 97.008 151.937 86.64H141.089C139.745 91.152 135.521 93.648 129.089 93.648C121.313 93.648 116.897 89.424 116.033 81.072L151.745 80.976V77.424C151.745 62.64 142.721 53.136 128.512 53.136C114.593 53.136 104.896 63.408 104.896 78.288C104.896 92.976 114.785 103.248 128.897 103.248ZM128.609 62.736C135.616 62.736 140.129 67.056 140.129 73.584H116.321C117.473 66.48 121.697 62.736 128.609 62.736ZM154.494 78.192C154.494 93.264 163.902 103.248 178.302 103.248C190.686 103.248 199.902 95.664 201.342 84.624H189.534C188.286 89.808 184.158 92.688 178.302 92.688C170.814 92.688 166.206 87.12 166.206 78.192C166.206 69.264 171.198 63.6 178.686 63.6C184.254 63.6 188.19 66.384 189.534 71.76H201.246C199.998 60.336 191.166 53.136 178.206 53.136C164.19 53.136 154.494 63.504 154.494 78.192ZM218.027 102V89.232L224.939 82.032L237.323 102H250.763L233.099 73.392L251.147 54.576H236.459L218.027 74.448V30.576H206.411V102H218.027Z" fill="#F5F5F5"/>
<path d="M445.048 123.984H456.76V95.664C459.736 100.464 465.88 103.248 472.984 103.248C487.096 103.248 495.16 92.496 495.16 77.712C495.16 62.832 486.328 53.136 472.984 53.136C465.784 53.136 459.544 56.304 456.664 61.776L455.896 54.576H445.048V123.984ZM456.856 78.288C456.856 69.744 462.136 63.792 470.2 63.792C478.456 63.792 483.352 69.84 483.352 78.288C483.352 86.736 478.456 92.688 470.2 92.688C462.136 92.688 456.856 86.832 456.856 78.288ZM514.758 103.248C522.149 103.248 528.582 99.888 530.598 94.992L531.462 102H541.734V73.2C541.734 60.048 533.862 53.136 521.094 53.136C508.23 53.136 499.781 59.856 499.781 70.128H509.766C509.766 65.136 513.606 62.256 520.518 62.256C526.47 62.256 530.31 64.848 530.31 71.28V72.336L516.102 73.392C504.87 74.256 498.533 79.728 498.533 88.464C498.533 97.392 504.678 103.248 514.758 103.248ZM518.597 94.416C513.318 94.416 510.438 92.304 510.438 87.984C510.438 84.144 513.222 81.744 520.518 81.072L530.406 80.304V82.8C530.406 90.096 525.798 94.416 518.597 94.416ZM546.711 77.232C546.711 90.96 555.543 101.04 568.983 101.04C575.799 101.04 581.655 98.256 584.631 93.84V101.712C584.631 109.584 579.447 114.672 571.383 114.672C564.183 114.672 559.479 111.024 558.711 104.88H546.999C548.439 117.552 557.751 125.328 571.383 125.328C586.743 125.328 596.247 115.44 596.247 99.6V54.576H585.399L584.727 61.104C581.943 56.016 576.375 53.04 569.271 53.04C555.735 53.04 546.711 63.408 546.711 77.232ZM558.519 76.944C558.519 69.168 563.511 63.312 571.287 63.312C579.447 63.312 584.343 68.88 584.343 76.944C584.343 85.2 579.351 90.864 571.287 90.864C563.607 90.864 558.519 84.912 558.519 76.944ZM625.744 103.248C638.128 103.248 646.768 97.008 648.784 86.64H637.936C636.592 91.152 632.368 93.648 625.936 93.648C618.16 93.648 613.744 89.424 612.88 81.072L648.592 80.976V77.424C648.592 62.64 639.568 53.136 625.36 53.136C611.44 53.136 601.744 63.408 601.744 78.288C601.744 92.976 611.632 103.248 625.744 103.248ZM625.456 62.736C632.464 62.736 636.976 67.056 636.976 73.584H613.168C614.32 66.48 618.544 62.736 625.456 62.736Z" fill="#F5F5F5"/>
<ellipse cx="325.5" cy="79" rx="16.5" ry="17" fill="url(#paint0_linear_5_117)"/>
<path d="M253.92 123.984C256.512 124.656 259.392 125.04 262.656 125.04C270.432 125.04 275.424 121.392 278.976 112.56L302.208 54.576H290.112L277.248 89.136L265.056 54.576H252.672L271.776 104.016L270.432 107.568C268.416 113.136 265.536 114.192 260.928 114.192H253.92V123.984ZM300.08 78.192C300.08 92.976 310.736 103.152 325.424 103.152C340.112 103.152 350.768 92.976 350.768 78.192C350.768 63.408 340.112 53.232 325.424 53.232C310.736 53.232 300.08 63.408 300.08 78.192ZM311.792 78.192C311.792 69.552 317.36 63.696 325.424 63.696C333.488 63.696 339.056 69.552 339.056 78.192C339.056 86.832 333.488 92.688 325.424 92.688C317.36 92.688 311.792 86.832 311.792 78.192ZM387.247 54.576V79.44C387.247 88.464 383.695 92.784 376.303 92.784C369.775 92.784 366.223 89.136 366.223 80.112V54.576H354.511V84.24C354.511 95.856 360.943 103.248 371.887 103.248C378.223 103.248 384.367 100.176 387.247 95.664L388.111 102H398.959V54.576H387.247ZM436.975 54.384C435.055 53.904 433.423 53.712 431.791 53.712C425.455 53.712 420.943 56.88 418.927 61.584L418.255 54.672H407.215V102H418.927V78.96C418.927 69.744 424.207 65.232 432.655 65.232H436.975V54.384Z" fill="url(#paint1_linear_5_117)"/>
<path fill-rule="evenodd" clip-rule="evenodd" d="M346.424 57.538L353.053 64.8362L323.419 97.462L305.947 78.2255L312.576 70.9274L323.419 82.8657L346.424 57.538Z" fill="#F8F8F8"/>
<defs>
<linearGradient id="paint0_linear_5_117" x1="325.5" y1="62" x2="325.5" y2="96" gradientUnits="userSpaceOnUse">
<stop stop-color="#0CE683"/>
<stop offset="1" stop-color="#30DF8A"/>
</linearGradient>
<linearGradient id="paint1_linear_5_117" x1="345.5" y1="51" x2="345.5" y2="104.5" gradientUnits="userSpaceOnUse">
<stop stop-color="#00FF8D"/>
<stop offset="1" stop-color="#38DB8A"/>
</linearGradient>
</defs>
</svg>
