<svg width="860" height="604" viewBox="0 0 860 604" fill="none" xmlns="http://www.w3.org/2000/svg">
<g clip-path="url(#clip0_276_10412)">
<path d="M199.841 468.74C200.021 468.362 200.118 467.949 200.123 467.53C200.129 467.111 200.043 466.696 199.873 466.313C199.703 465.931 199.451 465.589 199.136 465.313C198.822 465.036 198.45 464.832 198.049 464.713C182.879 460.453 166.749 461.12 151.984 466.618C136.621 472.312 124.239 482.523 115.802 495.192C115.574 495.544 115.426 495.941 115.366 496.356C115.307 496.771 115.338 497.193 115.458 497.595C115.578 497.997 115.783 498.367 116.06 498.682C116.337 498.997 116.679 499.247 117.062 499.417C117.73 499.718 118.484 499.772 119.189 499.569C119.893 499.366 120.503 498.92 120.91 498.31C128.937 486.34 140.539 477.211 154.061 472.223C168.113 467.016 182.782 466.692 196.199 470.402C197.655 470.806 199.215 470.113 199.841 468.74V468.74Z" fill="#212121"/>
<path d="M192.241 485.301C192.426 484.915 192.523 484.493 192.525 484.065C192.527 483.637 192.434 483.214 192.252 482.826C192.07 482.439 191.804 482.097 191.473 481.825C191.142 481.554 190.755 481.359 190.34 481.256C179.647 478.851 168.486 479.608 158.215 483.433C147.538 487.39 138.752 494.216 132.43 502.717C132.18 503.065 132.011 503.465 131.936 503.887C131.861 504.309 131.882 504.743 131.997 505.156C132.111 505.569 132.317 505.951 132.598 506.274C132.88 506.597 133.231 506.853 133.624 507.023C134.275 507.312 135.004 507.372 135.692 507.192C136.381 507.012 136.988 506.603 137.414 506.033C143.253 498.292 151.194 492.392 160.292 489.038C169.378 485.655 179.244 484.955 188.716 487.021C190.144 487.333 191.63 486.63 192.241 485.301V485.301ZM184.539 502.07C185.337 500.334 184.32 498.295 182.421 498.074C176.342 497.367 170.182 498.112 164.447 500.248C158.505 502.45 153.417 505.955 149.397 510.313C148.101 511.718 148.658 513.927 150.394 514.724L150.509 514.777C151.739 515.342 153.185 514.997 154.121 514.013C157.576 510.379 161.819 507.587 166.524 505.853C171.389 504.05 176.414 503.469 181.251 503.965C182.596 504.104 183.919 503.423 184.481 502.188L184.539 502.07ZM177.533 517.327C178.225 515.821 177.563 514.001 175.938 513.711C173.827 513.322 171.651 513.512 169.639 514.26C167.626 515.004 165.852 516.278 164.504 517.948C163.461 519.227 164.145 521.039 165.651 521.731L171.074 524.221C171.795 524.552 172.617 524.583 173.36 524.307C174.103 524.032 174.706 523.473 175.037 522.753L177.531 517.321L177.533 517.327Z" fill="#212121"/>
</g>
<g clip-path="url(#clip1_276_10412)">
<path d="M651.44 111.548L651.775 110.586C657.916 112.055 661.876 110.041 663.905 104.229L667.607 93.625C669.86 87.1696 673.076 85.3531 678.765 87.3389L680.375 87.9013L682.363 82.207L680.145 81.4325C670.633 78.1118 664.585 81.0249 661.303 90.4248L658.164 99.4175C655.91 105.873 652.946 107.234 646.372 104.94L643.696 112.605C650.27 114.9 651.743 117.81 649.489 124.266L646.35 133.258C643.068 142.658 645.983 148.7 655.501 152.023L657.72 152.798L659.706 147.109L658.095 146.547C652.406 144.561 651.02 141.138 653.273 134.682L656.977 124.073C659.004 118.267 657.158 114.226 651.44 111.548V111.548ZM721.239 134.836L720.903 135.798C714.761 134.336 710.801 136.349 708.774 142.156L705.07 152.765C702.816 159.221 699.601 161.037 693.912 159.051L692.301 158.489L690.315 164.177L692.534 164.952C702.052 168.275 708.094 165.359 711.376 155.959L714.515 146.967C716.769 140.511 719.733 139.15 726.307 141.445L728.983 133.779C722.409 131.485 720.936 128.574 723.19 122.119L726.329 113.126C729.611 103.726 726.69 97.6817 717.178 94.361L714.959 93.5864L712.973 99.2748L714.584 99.8371C720.273 101.823 721.659 105.246 719.406 111.702L715.702 122.311C713.675 128.118 715.521 132.158 721.239 134.836Z" fill="#212121"/>
</g>
<path d="M677.863 495.612C678.25 495.508 678.613 495.329 678.931 495.085C679.249 494.841 679.516 494.537 679.716 494.19C679.916 493.843 680.046 493.46 680.099 493.063C680.151 492.666 680.125 492.262 680.021 491.875C679.917 491.488 679.738 491.125 679.494 490.807C679.25 490.489 678.946 490.223 678.599 490.022C678.252 489.822 677.869 489.692 677.472 489.64C677.075 489.587 676.671 489.614 676.284 489.717L647.145 497.525C646.758 497.628 646.395 497.807 646.076 498.051C645.758 498.295 645.491 498.599 645.291 498.946C645.091 499.293 644.961 499.676 644.909 500.074C644.856 500.471 644.883 500.875 644.988 501.262L652.795 530.401C653.005 531.183 653.516 531.849 654.217 532.254C654.918 532.658 655.751 532.768 656.532 532.558C657.314 532.349 657.98 531.838 658.385 531.137C658.79 530.436 658.899 529.603 658.69 528.822L651.666 502.627L677.863 495.612V495.612ZM700.517 508.691C700.308 507.909 700.417 507.076 700.822 506.376C701.226 505.675 701.893 505.163 702.675 504.954C703.456 504.745 704.289 504.854 704.99 505.259C705.691 505.663 706.202 506.33 706.411 507.111L714.219 536.25C714.323 536.637 714.35 537.041 714.298 537.439C714.246 537.836 714.116 538.219 713.916 538.566C713.715 538.914 713.448 539.218 713.13 539.462C712.812 539.705 712.449 539.884 712.062 539.987L682.923 547.795C682.141 548.004 681.308 547.895 680.607 547.49C679.907 547.086 679.395 546.419 679.186 545.638C678.976 544.856 679.086 544.023 679.491 543.322C679.895 542.621 680.562 542.11 681.343 541.901L707.54 534.886L700.517 508.691V508.691Z" fill="#212121"/>
<path d="M118.466 112.964C123.517 111.137 128.259 110.52 132.694 111.113C137.128 111.707 140.982 113.399 144.256 116.192C147.514 118.937 149.972 122.601 151.629 127.182C152.952 130.837 153.633 134.568 153.672 138.373C153.694 142.133 152.944 145.465 151.423 148.371C149.947 151.26 147.707 153.247 144.704 154.334C142.429 155.157 140.468 155.212 138.821 154.5C137.174 153.788 135.899 152.47 134.998 150.546C134.307 153.046 133.079 155.27 131.313 157.217C129.593 159.147 127.528 160.549 125.116 161.421C121.658 162.672 118.543 162.596 115.771 161.192C113.028 159.725 110.995 157.164 109.672 153.509C108.416 150.038 107.95 146.544 108.272 143.026C108.64 139.492 109.771 136.361 111.666 133.635C113.545 130.862 116.099 128.891 119.33 127.722C123.652 126.158 127.167 126.771 129.874 129.559L129.068 124.984L134.459 123.033L138.304 144.326C138.486 145.255 138.711 146.089 138.979 146.829C139.983 149.606 141.691 150.557 144.103 149.685C145.923 149.026 147.174 147.579 147.858 145.344C148.586 143.091 148.815 140.523 148.543 137.639C148.255 134.708 147.642 131.947 146.704 129.356C144.511 123.295 141.014 119.248 136.214 117.218C131.46 115.17 125.829 115.324 119.323 117.678C113.908 119.637 109.503 122.749 106.106 127.013C102.737 131.214 100.662 136.073 99.879 141.589C99.0962 147.105 99.7176 152.662 101.743 158.261C103.908 164.385 107.404 168.432 112.233 170.4C117.079 172.414 122.732 172.252 129.193 169.915C133.47 168.367 136.962 166.214 139.669 163.456L142.045 167.462C138.614 170.64 134.465 173.109 129.597 174.871C124.728 176.632 120.085 177.239 115.668 176.692C111.312 176.175 107.475 174.528 104.155 171.753C100.897 169.007 98.4315 165.32 96.7573 160.693C94.3967 154.169 93.7241 147.688 94.7396 141.251C95.7383 134.767 98.2931 129.028 102.404 124.035C106.56 119.025 111.914 115.335 118.466 112.964ZM125.176 155.827C127.223 155.086 128.894 153.801 130.188 151.972C131.465 150.098 132.227 147.938 132.475 145.493C132.706 143.003 132.369 140.508 131.465 138.01C130.594 135.604 129.231 133.899 127.376 132.896C125.55 131.83 123.454 131.725 121.087 132.581C118.903 133.371 117.212 134.742 116.014 136.693C114.845 138.581 114.199 140.777 114.076 143.281C113.936 145.739 114.285 148.124 115.122 150.438C116.009 152.89 117.326 154.611 119.074 155.601C120.821 156.591 122.855 156.666 125.176 155.827Z" fill="#212121"/>
<g clip-path="url(#clip2_276_10412)">
<path d="M335.027 549.018C335.859 549.241 336.568 549.785 336.998 550.531C337.429 551.276 337.545 552.162 337.323 552.994L330.321 579.126C330.172 579.68 330.25 580.271 330.537 580.768C330.824 581.265 331.297 581.628 331.851 581.776C332.405 581.925 332.996 581.847 333.493 581.56C333.99 581.273 334.353 580.8 334.502 580.246L337.339 569.655L337.703 569.735C339.042 570.04 340.376 570.415 341.085 570.762C341.615 571.025 342.207 571.493 342.754 572.025C343.029 572.287 343.217 572.808 343.03 573.506L340.773 581.926C340.625 582.481 340.703 583.072 340.99 583.569C341.277 584.066 341.749 584.429 342.304 584.577C342.858 584.726 343.449 584.648 343.946 584.361C344.443 584.074 344.806 583.601 344.954 583.047L346.708 576.503C346.859 576.527 347.011 576.553 347.162 576.58C348.51 576.834 349.615 577.193 350.077 577.541C350.519 577.865 351.1 578.742 351.628 579.883C351.859 580.375 352.042 580.846 352.174 581.19L350.666 586.818C350.517 587.372 350.595 587.963 350.882 588.46C351.169 588.957 351.642 589.32 352.196 589.468C352.751 589.617 353.341 589.539 353.838 589.252C354.336 588.965 354.698 588.493 354.847 587.938L355.967 583.757L357.397 584.14C357.981 584.297 358.526 584.574 358.997 584.954C359.468 585.334 359.853 585.809 360.129 586.347C360.405 586.886 360.565 587.476 360.599 588.08C360.632 588.684 360.539 589.288 360.325 589.854L356.15 600.902C355.613 602.322 354.783 603.612 353.715 604.69L345.146 613.338C344.878 613.609 344.542 613.804 344.174 613.904C343.806 614.003 343.418 614.004 343.049 613.905L316.353 606.752C316.009 606.659 315.693 606.483 315.433 606.239C315.173 605.996 314.978 605.691 314.864 605.353L311.281 594.759C310.948 593.776 310.855 592.728 311.011 591.702L313.047 578.333C313.128 577.797 313.407 577.311 313.83 576.971C314.252 576.631 314.786 576.462 315.327 576.497L319.745 576.785L318.748 580.506C318.599 581.06 318.677 581.651 318.964 582.148C319.251 582.645 319.724 583.008 320.278 583.157C320.832 583.305 321.423 583.227 321.92 582.94C322.417 582.653 322.78 582.181 322.929 581.626L331.051 551.313C331.274 550.482 331.818 549.773 332.564 549.342C333.309 548.912 334.195 548.795 335.027 549.018V549.018ZM338.461 565.47L341.504 554.114C342.024 552.174 341.751 550.106 340.747 548.366C339.742 546.626 338.088 545.357 336.147 544.837C334.207 544.317 332.139 544.589 330.399 545.594C328.659 546.598 327.39 548.253 326.87 550.193L320.887 572.52L315.601 572.179C313.981 572.075 312.38 572.583 311.115 573.601C309.85 574.619 309.013 576.074 308.768 577.68L306.731 591.052C306.471 592.762 306.626 594.509 307.18 596.147L310.763 606.742C311.106 607.754 311.693 608.667 312.473 609.398C313.252 610.129 314.2 610.656 315.233 610.933L341.929 618.086C343.035 618.382 344.199 618.38 345.303 618.081C346.408 617.783 347.414 617.197 348.22 616.384L356.787 607.741C358.285 606.23 359.447 604.421 360.199 602.431L364.374 591.383C364.802 590.251 364.988 589.043 364.92 587.835C364.852 586.628 364.532 585.448 363.98 584.372C363.428 583.295 362.657 582.347 361.716 581.587C360.775 580.827 359.686 580.272 358.517 579.959L356.088 579.308C355.922 578.884 355.743 578.466 355.551 578.053C355.009 576.881 354.055 575.107 352.674 574.073C351.315 573.055 349.284 572.574 347.953 572.324L347.388 572.227C347.248 570.968 346.674 569.797 345.765 568.915C344.952 568.103 344.021 567.418 343.002 566.884C341.776 566.278 339.978 565.814 338.664 565.515L338.461 565.47Z" fill="#212121"/>
</g>
<g clip-path="url(#clip3_276_10412)">
<path d="M482.564 118.262C483.293 117.998 484.105 118.058 484.823 118.429C485.54 118.8 486.104 119.451 486.391 120.24L495.389 145.031C495.58 145.557 495.956 145.991 496.434 146.239C496.913 146.486 497.454 146.526 497.94 146.35C498.425 146.173 498.815 145.795 499.024 145.299C499.232 144.802 499.242 144.228 499.051 143.702L495.404 133.655L495.713 133.524C496.857 133.055 498.035 132.646 498.741 132.547C499.27 132.476 499.956 132.537 500.643 132.673C500.986 132.737 501.404 133.057 501.645 133.719L504.544 141.708C504.735 142.234 505.111 142.668 505.59 142.916C506.068 143.163 506.61 143.203 507.095 143.026C507.581 142.85 507.971 142.472 508.179 141.976C508.388 141.479 508.398 140.905 508.207 140.379L505.953 134.171C506.077 134.109 506.202 134.049 506.327 133.99C507.45 133.475 508.452 133.174 508.978 133.208C509.476 133.234 510.374 133.63 511.377 134.268C511.811 134.541 512.2 134.822 512.482 135.029L514.42 140.368C514.611 140.894 514.987 141.328 515.465 141.576C515.944 141.823 516.485 141.863 516.971 141.687C517.456 141.51 517.846 141.132 518.055 140.636C518.263 140.139 518.273 139.565 518.082 139.039L516.642 135.072L517.895 134.618C518.407 134.432 518.955 134.364 519.504 134.419C520.054 134.474 520.592 134.651 521.085 134.937C521.577 135.224 522.013 135.614 522.364 136.083C522.715 136.551 522.973 137.088 523.122 137.658L526.039 148.787C526.413 150.218 526.504 151.701 526.305 153.14L524.712 164.68C524.662 165.042 524.522 165.378 524.307 165.655C524.091 165.932 523.808 166.139 523.485 166.257L500.102 174.744C499.8 174.853 499.474 174.88 499.152 174.822C498.83 174.765 498.523 174.624 498.257 174.413L489.914 167.789C489.139 167.175 488.505 166.38 488.065 165.471L482.331 153.613C482.101 153.138 482.043 152.598 482.168 152.098C482.293 151.599 482.592 151.178 483.006 150.917L486.392 148.79L487.673 152.321C487.864 152.847 488.24 153.281 488.718 153.528C489.197 153.776 489.738 153.816 490.224 153.639C490.71 153.463 491.099 153.085 491.308 152.588C491.516 152.092 491.526 151.517 491.335 150.991L480.897 122.234C480.611 121.445 480.626 120.583 480.938 119.839C481.251 119.094 481.836 118.527 482.564 118.262V118.262ZM493.963 129.684L490.053 118.911C489.385 117.07 488.069 115.549 486.394 114.684C484.72 113.818 482.824 113.679 481.124 114.296C479.425 114.913 478.06 116.236 477.331 117.974C476.601 119.712 476.567 121.722 477.235 123.563L484.923 144.745L480.874 147.292C479.633 148.073 478.737 149.336 478.362 150.832C477.987 152.327 478.161 153.947 478.849 155.371L484.585 167.232C485.319 168.748 486.375 170.073 487.666 171.097L496.009 177.72C496.807 178.353 497.729 178.774 498.694 178.947C499.659 179.12 500.637 179.039 501.541 178.711L524.925 170.223C525.893 169.871 526.743 169.249 527.389 168.418C528.036 167.588 528.455 166.579 528.605 165.494L530.199 153.957C530.478 151.941 530.35 149.862 529.825 147.858L526.909 136.728C526.61 135.588 526.094 134.516 525.391 133.579C524.689 132.642 523.818 131.863 522.833 131.29C521.848 130.717 520.772 130.365 519.673 130.255C518.575 130.145 517.478 130.28 516.455 130.651L514.327 131.423C513.977 131.171 513.62 130.929 513.256 130.699C512.227 130.044 510.571 129.124 509.003 129.029C507.459 128.933 505.714 129.63 504.606 130.139L504.14 130.363C503.358 129.423 502.306 128.786 501.165 128.56C500.131 128.34 499.08 128.285 498.048 128.399C496.823 128.565 495.258 129.151 494.136 129.612L493.963 129.684Z" fill="#212121"/>
</g>
<g clip-path="url(#clip4_276_10412)">
<path d="M325.702 55.9233C326.096 55.8486 326.503 55.878 326.882 56.0086C327.261 56.1392 327.6 56.3664 327.864 56.6678L340.991 71.6364C341.259 71.9418 341.442 72.3125 341.52 72.7111C341.599 73.1097 341.57 73.522 341.438 73.9061L335.442 91.3177L347.685 105.285C347.952 105.589 348.134 105.958 348.213 106.355C348.292 106.752 348.265 107.163 348.135 107.546L341.702 126.226C341.569 126.61 341.338 126.952 341.03 127.218C340.723 127.483 340.351 127.663 339.952 127.739L320.392 131.45C319.998 131.525 319.591 131.495 319.212 131.365C318.833 131.234 318.494 131.007 318.23 130.706L305.969 116.732L287.703 120.197C287.309 120.272 286.902 120.242 286.523 120.112C286.144 119.981 285.805 119.754 285.541 119.452L272.414 104.484C272.146 104.179 271.964 103.808 271.885 103.409C271.807 103.011 271.835 102.598 271.967 102.214L278.4 83.5344C278.533 83.1503 278.764 82.8081 279.072 82.5423C279.379 82.2766 279.751 82.0968 280.15 82.0211L298.396 78.5593L304.392 61.1478C304.525 60.7637 304.756 60.4215 305.064 60.1557C305.371 59.89 305.743 59.7102 306.142 59.6345L325.702 55.9233ZM299.275 83.0841L284.973 85.7979L294.571 96.7431L308.874 94.0293L299.275 83.0841ZM309.794 98.5486L295.45 101.268L290.746 114.927L305.09 112.208L309.794 98.5486ZM309.448 113.709L319.075 124.683L323.78 111.024L314.152 100.05L309.448 113.709ZM317.66 97.0553L327.259 108L341.561 105.287L331.963 94.3415L317.66 97.0553ZM331.083 89.8167L335.787 76.1577L321.442 78.8813L316.738 92.5402L331.083 89.8167V89.8167ZM312.38 91.0393L317.084 77.3803L307.458 66.4013L302.754 80.0603L312.38 91.0393ZM310.965 63.4112L320.563 74.3564L334.866 71.6427L325.267 60.6975L310.965 63.4112ZM342.481 109.806L328.138 112.525L323.434 126.184L337.777 123.465L342.481 109.806ZM286.388 113.426L291.092 99.7669L281.465 88.7922L276.761 102.451L286.388 113.426Z" fill="#212121"/>
</g>
<g clip-path="url(#clip5_276_10412)">
<path fill-rule="evenodd" clip-rule="evenodd" d="M505.805 453.351C505.091 453.631 504.439 454.049 503.887 454.581C503.335 455.113 502.893 455.749 502.586 456.452C502.279 457.155 502.114 457.911 502.1 458.678C502.085 459.444 502.222 460.207 502.502 460.92C502.782 461.634 503.2 462.286 503.732 462.838C504.264 463.391 504.9 463.833 505.603 464.139C506.306 464.446 507.062 464.611 507.829 464.626C508.596 464.64 509.358 464.503 510.071 464.223C511.513 463.657 512.671 462.542 513.29 461.123C513.91 459.703 513.94 458.096 513.374 456.654C512.808 455.212 511.693 454.054 510.274 453.435C508.854 452.816 507.247 452.785 505.805 453.351ZM498.348 460.459C497.961 458.248 498.349 455.971 499.448 454.013C500.547 452.056 502.289 450.538 504.379 449.718C506.469 448.898 508.778 448.826 510.915 449.513C513.053 450.201 514.886 451.606 516.106 453.491L523.535 450.575L524.957 454.199L517.528 457.115C517.916 459.326 517.527 461.604 516.428 463.561C515.329 465.519 513.587 467.036 511.497 467.856C509.407 468.676 507.098 468.749 504.961 468.061C502.824 467.374 500.99 465.968 499.771 464.083L466.974 476.954L465.551 473.33L498.348 460.459ZM487.548 481.426C486.106 481.992 484.948 483.107 484.329 484.527C483.709 485.946 483.679 487.554 484.245 488.995C484.811 490.437 485.926 491.595 487.346 492.214C488.765 492.834 490.373 492.864 491.814 492.298C493.256 491.732 494.414 490.617 495.033 489.198C495.653 487.778 495.683 486.171 495.117 484.729C494.551 483.287 493.436 482.129 492.017 481.51C490.597 480.891 488.99 480.86 487.548 481.426ZM480.091 488.534C479.703 486.323 480.092 484.046 481.191 482.088C482.29 480.131 484.032 478.613 486.122 477.793C488.212 476.973 490.521 476.901 492.658 477.588C494.795 478.276 496.629 479.681 497.849 481.566L530.646 468.695L532.068 472.319L499.271 485.19C499.659 487.401 499.27 489.678 498.171 491.636C497.072 493.594 495.33 495.111 493.24 495.931C491.15 496.751 488.841 496.824 486.704 496.136C484.567 495.449 482.733 494.043 481.513 492.158L474.084 495.074L472.662 491.45L480.091 488.534ZM520.027 489.591C518.585 490.157 517.427 491.272 516.807 492.692C516.188 494.111 516.158 495.718 516.724 497.16C517.29 498.602 518.405 499.76 519.824 500.379C521.244 500.999 522.851 501.029 524.293 500.463C525.735 499.897 526.893 498.782 527.512 497.362C528.131 495.943 528.161 494.335 527.596 492.894C527.03 491.452 525.915 490.294 524.495 489.675C523.076 489.055 521.468 489.025 520.027 489.591ZM512.57 496.699C512.182 494.488 512.571 492.211 513.67 490.253C514.769 488.295 516.511 486.778 518.601 485.958C520.691 485.138 523 485.065 525.137 485.753C527.274 486.441 529.108 487.846 530.327 489.731L537.757 486.815L539.179 490.439L531.75 493.355C532.137 495.566 531.749 497.843 530.65 499.801C529.551 501.758 527.809 503.276 525.719 504.096C523.629 504.916 521.32 504.989 519.183 504.301C517.045 503.613 515.212 502.208 513.992 500.323L481.195 513.194L479.773 509.57L512.57 496.699Z" fill="#212121"/>
</g>
<defs>
<clipPath id="clip0_276_10412">
<rect width="95.6389" height="95.6389" fill="white" transform="translate(100.913 466.42) rotate(-20.3341)"/>
</clipPath>
<clipPath id="clip1_276_10412">
<rect width="100" height="100" fill="white" transform="translate(655.575 59.6153) rotate(19.2444)"/>
</clipPath>
<clipPath id="clip2_276_10412">
<rect width="69.257" height="69.257" fill="white" transform="translate(307.925 537.275) rotate(15)"/>
</clipPath>
<clipPath id="clip3_276_10412">
<rect width="62.3361" height="67.5157" fill="white" transform="translate(456.404 123.268) rotate(-19.9492)"/>
</clipPath>
<clipPath id="clip4_276_10412">
<rect width="73.7528" height="73.7528" fill="white" transform="translate(292.016 44) rotate(19.0035)"/>
</clipPath>
<clipPath id="clip5_276_10412">
<rect width="62.2886" height="62.2886" fill="white" transform="translate(461.285 462.458) rotate(-21.4265)"/>
</clipPath>
</defs>
</svg>
