<svg width="706" height="604" viewBox="0 0 706 604" fill="none" xmlns="http://www.w3.org/2000/svg">
<g clip-path="url(#clip0_276_10412)">
<path d="M134.841 468.74C135.021 468.362 135.118 467.949 135.123 467.53C135.129 467.111 135.043 466.696 134.873 466.313C134.703 465.931 134.451 465.589 134.136 465.313C133.822 465.036 133.45 464.832 133.049 464.713C117.879 460.453 101.749 461.12 86.9839 466.618C71.6208 472.312 59.2387 482.523 50.802 495.192C50.5744 495.544 50.4258 495.941 50.3665 496.356C50.3071 496.771 50.3383 497.193 50.4581 497.595C50.5778 497.997 50.7832 498.367 51.06 498.682C51.3369 498.997 51.6786 499.247 52.0617 499.417C52.7304 499.718 53.4841 499.772 54.1888 499.569C54.8934 499.366 55.5033 498.92 55.9097 498.31C63.9373 486.34 75.5392 477.211 89.061 472.223C103.113 467.016 117.782 466.692 131.199 470.402C132.655 470.806 134.215 470.113 134.841 468.74V468.74Z" fill="#212121"/>
<path d="M127.241 485.301C127.426 484.915 127.523 484.493 127.525 484.065C127.527 483.637 127.434 483.214 127.252 482.826C127.07 482.439 126.804 482.097 126.473 481.825C126.142 481.554 125.755 481.359 125.34 481.256C114.647 478.851 103.486 479.608 93.2153 483.433C82.5379 487.39 73.7523 494.216 67.4299 502.717C67.18 503.065 67.0114 503.465 66.9364 503.887C66.8614 504.309 66.882 504.743 66.9965 505.156C67.1111 505.569 67.3168 505.951 67.5985 506.274C67.8801 506.597 68.2307 506.853 68.6243 507.023C69.2746 507.312 70.0038 507.372 70.6924 507.192C71.3809 507.012 71.9879 506.603 72.4137 506.033C78.2528 498.292 86.1945 492.392 95.2924 489.038C104.378 485.655 114.244 484.955 123.716 487.021C125.144 487.333 126.63 486.63 127.241 485.301V485.301ZM119.539 502.07C120.337 500.334 119.32 498.295 117.421 498.074C111.342 497.367 105.182 498.112 99.4467 500.248C93.5054 502.45 88.4169 505.955 84.3968 510.313C83.1006 511.718 83.658 513.927 85.3942 514.724L85.5094 514.777C86.7385 515.342 88.1853 514.997 89.121 514.013C92.576 510.379 96.8193 507.587 101.524 505.853C106.389 504.05 111.414 503.469 116.251 503.965C117.596 504.104 118.919 503.423 119.481 502.188L119.539 502.07ZM112.533 517.327C113.225 515.821 112.563 514.001 110.938 513.711C108.827 513.322 106.651 513.512 104.639 514.26C102.626 515.004 100.852 516.278 99.504 517.948C98.4609 519.227 99.1451 521.039 100.651 521.731L106.074 524.221C106.795 524.552 107.617 524.583 108.36 524.307C109.103 524.032 109.706 523.473 110.037 522.753L112.531 517.321L112.533 517.327Z" fill="#212121"/>
</g>
<g clip-path="url(#clip1_276_10412)">
<path d="M586.44 111.548L586.775 110.586C592.916 112.055 596.876 110.041 598.905 104.229L602.607 93.625C604.86 87.1696 608.076 85.3531 613.765 87.3389L615.375 87.9013L617.363 82.207L615.145 81.4325C605.633 78.1118 599.585 81.0249 596.303 90.4248L593.164 99.4175C590.91 105.873 587.946 107.234 581.372 104.94L578.696 112.605C585.27 114.9 586.743 117.81 584.489 124.266L581.35 133.258C578.068 142.658 580.983 148.7 590.501 152.023L592.72 152.798L594.706 147.109L593.095 146.547C587.406 144.561 586.02 141.138 588.273 134.682L591.977 124.073C594.004 118.267 592.158 114.226 586.44 111.548V111.548ZM656.239 134.836L655.903 135.798C649.761 134.336 645.801 136.349 643.774 142.156L640.07 152.765C637.816 159.221 634.601 161.037 628.912 159.051L627.301 158.489L625.315 164.177L627.534 164.952C637.052 168.275 643.094 165.359 646.376 155.959L649.515 146.967C651.769 140.511 654.733 139.15 661.307 141.445L663.983 133.779C657.409 131.485 655.936 128.574 658.19 122.119L661.329 113.126C664.611 103.726 661.69 97.6817 652.178 94.361L649.959 93.5864L647.973 99.2748L649.584 99.8371C655.273 101.823 656.659 105.246 654.406 111.702L650.702 122.311C648.675 128.118 650.521 132.158 656.239 134.836Z" fill="#212121"/>
</g>
<path d="M612.863 495.612C613.25 495.508 613.613 495.329 613.931 495.085C614.249 494.841 614.516 494.537 614.716 494.19C614.916 493.843 615.046 493.46 615.099 493.063C615.151 492.666 615.125 492.262 615.021 491.875C614.917 491.488 614.738 491.125 614.494 490.807C614.25 490.489 613.946 490.223 613.599 490.022C613.252 489.822 612.869 489.692 612.472 489.64C612.075 489.587 611.671 489.614 611.284 489.717L582.145 497.525C581.758 497.628 581.395 497.807 581.076 498.051C580.758 498.295 580.491 498.599 580.291 498.946C580.091 499.293 579.961 499.676 579.909 500.074C579.856 500.471 579.883 500.875 579.988 501.262L587.795 530.401C588.005 531.183 588.516 531.849 589.217 532.254C589.918 532.658 590.751 532.768 591.532 532.558C592.314 532.349 592.98 531.838 593.385 531.137C593.79 530.436 593.899 529.603 593.69 528.822L586.666 502.627L612.863 495.612V495.612ZM635.517 508.691C635.308 507.909 635.417 507.076 635.822 506.376C636.226 505.675 636.893 505.163 637.675 504.954C638.456 504.745 639.289 504.854 639.99 505.259C640.691 505.663 641.202 506.33 641.411 507.111L649.219 536.25C649.323 536.637 649.35 537.041 649.298 537.439C649.246 537.836 649.116 538.219 648.916 538.566C648.715 538.914 648.448 539.218 648.13 539.462C647.812 539.705 647.449 539.884 647.062 539.987L617.923 547.795C617.141 548.004 616.308 547.895 615.607 547.49C614.907 547.086 614.395 546.419 614.186 545.638C613.976 544.856 614.086 544.023 614.491 543.322C614.895 542.621 615.562 542.11 616.343 541.901L642.54 534.886L635.517 508.691V508.691Z" fill="#212121"/>
<path d="M53.4665 112.964C58.517 111.137 63.2594 110.52 67.6936 111.113C72.1277 111.707 75.982 113.399 79.2564 116.192C82.5141 118.937 84.9716 122.601 86.6291 127.182C87.9517 130.837 88.6325 134.568 88.6717 138.373C88.6941 142.133 87.9445 145.465 86.4228 148.371C84.9467 151.26 82.7071 153.247 79.7041 154.334C77.4291 155.157 75.468 155.212 73.821 154.5C72.1739 153.788 70.8995 152.47 69.9976 150.546C69.3069 153.046 68.0789 155.27 66.3134 157.217C64.5935 159.147 62.5277 160.549 60.1162 161.421C56.6582 162.672 53.5431 162.596 50.771 161.192C48.0276 159.725 45.9946 157.164 44.672 153.509C43.4164 150.038 42.9497 146.544 43.272 143.026C43.6398 139.492 44.7712 136.361 46.6663 133.635C48.5446 130.862 51.0991 128.891 54.3296 127.722C58.6521 126.158 62.1668 126.771 64.8738 129.559L64.0675 124.984L69.4593 123.033L73.3044 144.326C73.486 145.255 73.7107 146.089 73.9786 146.829C74.9831 149.606 76.6911 150.557 79.1026 149.685C80.9226 149.026 82.1743 147.579 82.8576 145.344C83.5864 143.091 83.8149 140.523 83.5432 137.639C83.2546 134.708 82.6416 131.947 81.7041 129.356C79.5109 123.295 76.0143 119.248 71.2144 117.218C66.46 115.17 60.8295 115.324 54.3229 117.678C48.9084 119.637 44.5026 122.749 41.1056 127.013C37.7374 131.214 35.6618 136.073 34.879 141.589C34.0962 147.105 34.7176 152.662 36.7434 158.261C38.9078 164.385 42.4044 168.432 47.2331 170.4C52.0785 172.414 57.7317 172.252 64.1928 169.915C68.4698 168.367 71.9617 166.214 74.6685 163.456L77.0445 167.462C73.6144 170.64 69.4651 173.109 64.5966 174.871C59.7281 176.632 55.0851 177.239 50.6677 176.692C46.3125 176.175 42.4749 174.528 39.155 171.753C35.8974 169.007 33.4315 165.32 31.7573 160.693C29.3967 154.169 28.7241 147.688 29.7396 141.251C30.7383 134.767 33.2931 129.028 37.4039 124.035C41.5602 119.025 46.9144 115.335 53.4665 112.964ZM60.176 155.827C62.2235 155.086 63.8941 153.801 65.1878 151.972C66.4648 150.098 67.2271 147.938 67.4747 145.493C67.7056 143.003 67.369 140.508 66.465 138.01C65.5944 135.604 64.2315 133.899 62.3762 132.896C60.5498 131.83 58.4535 131.725 56.0875 132.581C53.9035 133.371 52.2125 134.742 51.0145 136.693C49.8452 138.581 49.199 140.777 49.0759 143.281C48.936 145.739 49.2846 148.124 50.1217 150.438C51.009 152.89 52.3264 154.611 54.0739 155.601C55.8215 156.591 57.8555 156.666 60.176 155.827Z" fill="#212121"/>
<g clip-path="url(#clip2_276_10412)">
<path d="M270.027 549.018C270.859 549.241 271.568 549.785 271.998 550.531C272.429 551.276 272.545 552.162 272.323 552.994L265.321 579.126C265.172 579.68 265.25 580.271 265.537 580.768C265.824 581.265 266.297 581.628 266.851 581.776C267.405 581.925 267.996 581.847 268.493 581.56C268.99 581.273 269.353 580.8 269.502 580.246L272.339 569.655L272.703 569.735C274.042 570.04 275.376 570.415 276.085 570.762C276.615 571.025 277.207 571.493 277.754 572.025C278.029 572.287 278.217 572.808 278.03 573.506L275.773 581.926C275.625 582.481 275.703 583.072 275.99 583.569C276.277 584.066 276.749 584.429 277.304 584.577C277.858 584.726 278.449 584.648 278.946 584.361C279.443 584.074 279.806 583.601 279.954 583.047L281.708 576.503C281.859 576.527 282.011 576.553 282.162 576.58C283.51 576.834 284.615 577.193 285.077 577.541C285.519 577.865 286.1 578.742 286.628 579.883C286.859 580.375 287.042 580.846 287.174 581.19L285.666 586.818C285.517 587.372 285.595 587.963 285.882 588.46C286.169 588.957 286.642 589.32 287.196 589.468C287.751 589.617 288.341 589.539 288.838 589.252C289.336 588.965 289.698 588.493 289.847 587.938L290.967 583.757L292.397 584.14C292.981 584.297 293.526 584.574 293.997 584.954C294.468 585.334 294.853 585.809 295.129 586.347C295.405 586.886 295.565 587.476 295.599 588.08C295.632 588.684 295.539 589.288 295.325 589.854L291.15 600.902C290.613 602.322 289.783 603.612 288.715 604.69L280.146 613.338C279.878 613.609 279.542 613.804 279.174 613.904C278.806 614.003 278.418 614.004 278.049 613.905L251.353 606.752C251.009 606.659 250.693 606.483 250.433 606.239C250.173 605.996 249.978 605.691 249.864 605.353L246.281 594.759C245.948 593.776 245.855 592.728 246.011 591.702L248.047 578.333C248.128 577.797 248.407 577.311 248.83 576.971C249.252 576.631 249.786 576.462 250.327 576.497L254.745 576.785L253.748 580.506C253.599 581.06 253.677 581.651 253.964 582.148C254.251 582.645 254.724 583.008 255.278 583.157C255.832 583.305 256.423 583.227 256.92 582.94C257.417 582.653 257.78 582.181 257.929 581.626L266.051 551.313C266.274 550.482 266.818 549.773 267.564 549.342C268.309 548.912 269.195 548.795 270.027 549.018V549.018ZM273.461 565.47L276.504 554.114C277.024 552.174 276.751 550.106 275.747 548.366C274.742 546.626 273.088 545.357 271.147 544.837C269.207 544.317 267.139 544.589 265.399 545.594C263.659 546.598 262.39 548.253 261.87 550.193L255.887 572.52L250.601 572.179C248.981 572.075 247.38 572.583 246.115 573.601C244.85 574.619 244.013 576.074 243.768 577.68L241.731 591.052C241.471 592.762 241.626 594.509 242.18 596.147L245.763 606.742C246.106 607.754 246.693 608.667 247.473 609.398C248.252 610.129 249.2 610.656 250.233 610.933L276.929 618.086C278.035 618.382 279.199 618.38 280.303 618.081C281.408 617.783 282.414 617.197 283.22 616.384L291.787 607.741C293.285 606.23 294.447 604.421 295.199 602.431L299.374 591.383C299.802 590.251 299.988 589.043 299.92 587.835C299.852 586.628 299.532 585.448 298.98 584.372C298.428 583.295 297.657 582.347 296.716 581.587C295.775 580.827 294.686 580.272 293.517 579.959L291.088 579.308C290.922 578.884 290.743 578.466 290.551 578.053C290.009 576.881 289.055 575.107 287.674 574.073C286.315 573.055 284.284 572.574 282.953 572.324L282.388 572.227C282.248 570.968 281.674 569.797 280.765 568.915C279.952 568.103 279.021 567.418 278.002 566.884C276.776 566.278 274.978 565.814 273.664 565.515L273.461 565.47Z" fill="#212121"/>
</g>
<g clip-path="url(#clip3_276_10412)">
<path d="M417.564 118.262C418.293 117.998 419.105 118.058 419.823 118.429C420.54 118.8 421.104 119.451 421.391 120.24L430.389 145.031C430.58 145.557 430.956 145.991 431.434 146.239C431.913 146.486 432.454 146.526 432.94 146.35C433.425 146.173 433.815 145.795 434.024 145.299C434.232 144.802 434.242 144.228 434.051 143.702L430.404 133.655L430.713 133.524C431.857 133.055 433.035 132.646 433.741 132.547C434.27 132.476 434.956 132.537 435.643 132.673C435.986 132.737 436.404 133.057 436.645 133.719L439.544 141.708C439.735 142.234 440.111 142.668 440.59 142.916C441.068 143.163 441.61 143.203 442.095 143.026C442.581 142.85 442.971 142.472 443.179 141.976C443.388 141.479 443.398 140.905 443.207 140.379L440.953 134.171C441.077 134.109 441.202 134.049 441.327 133.99C442.45 133.475 443.452 133.174 443.978 133.208C444.476 133.234 445.374 133.63 446.377 134.268C446.811 134.541 447.2 134.822 447.482 135.029L449.42 140.368C449.611 140.894 449.987 141.328 450.465 141.576C450.944 141.823 451.485 141.863 451.971 141.687C452.456 141.51 452.846 141.132 453.055 140.636C453.263 140.139 453.273 139.565 453.082 139.039L451.642 135.072L452.895 134.618C453.407 134.432 453.955 134.364 454.504 134.419C455.054 134.474 455.592 134.651 456.085 134.937C456.577 135.224 457.013 135.614 457.364 136.083C457.715 136.551 457.973 137.088 458.122 137.658L461.039 148.787C461.413 150.218 461.504 151.701 461.305 153.14L459.712 164.68C459.662 165.042 459.522 165.378 459.307 165.655C459.091 165.932 458.808 166.139 458.485 166.257L435.102 174.744C434.8 174.853 434.474 174.88 434.152 174.822C433.83 174.765 433.523 174.624 433.257 174.413L424.914 167.789C424.139 167.175 423.505 166.38 423.065 165.471L417.331 153.613C417.101 153.138 417.043 152.598 417.168 152.098C417.293 151.599 417.592 151.178 418.006 150.917L421.392 148.79L422.673 152.321C422.864 152.847 423.24 153.281 423.718 153.528C424.197 153.776 424.738 153.816 425.224 153.639C425.71 153.463 426.099 153.085 426.308 152.588C426.516 152.092 426.526 151.517 426.335 150.991L415.897 122.234C415.611 121.445 415.626 120.583 415.938 119.839C416.251 119.094 416.836 118.527 417.564 118.262V118.262ZM428.963 129.684L425.053 118.911C424.385 117.07 423.069 115.549 421.394 114.684C419.72 113.818 417.824 113.679 416.124 114.296C414.425 114.913 413.06 116.236 412.331 117.974C411.601 119.712 411.567 121.722 412.235 123.563L419.923 144.745L415.874 147.292C414.633 148.073 413.737 149.336 413.362 150.832C412.987 152.327 413.161 153.947 413.849 155.371L419.585 167.232C420.319 168.748 421.375 170.073 422.666 171.097L431.009 177.72C431.807 178.353 432.729 178.774 433.694 178.947C434.659 179.12 435.637 179.039 436.541 178.711L459.925 170.223C460.893 169.871 461.743 169.249 462.389 168.418C463.036 167.588 463.455 166.579 463.605 165.494L465.199 153.957C465.478 151.941 465.35 149.862 464.825 147.858L461.909 136.728C461.61 135.588 461.094 134.516 460.391 133.579C459.689 132.642 458.818 131.863 457.833 131.29C456.848 130.717 455.772 130.365 454.673 130.255C453.575 130.145 452.478 130.28 451.455 130.651L449.327 131.423C448.977 131.171 448.62 130.929 448.256 130.699C447.227 130.044 445.571 129.124 444.003 129.029C442.459 128.933 440.714 129.63 439.606 130.139L439.14 130.363C438.358 129.423 437.306 128.786 436.165 128.56C435.131 128.34 434.08 128.285 433.048 128.399C431.823 128.565 430.258 129.151 429.136 129.612L428.963 129.684Z" fill="#212121"/>
</g>
<g clip-path="url(#clip4_276_10412)">
<path d="M260.702 55.9233C261.096 55.8486 261.503 55.878 261.882 56.0086C262.261 56.1392 262.6 56.3664 262.864 56.6678L275.991 71.6364C276.259 71.9418 276.442 72.3125 276.52 72.7111C276.599 73.1097 276.57 73.522 276.438 73.9061L270.442 91.3177L282.685 105.285C282.952 105.589 283.134 105.958 283.213 106.355C283.292 106.752 283.265 107.163 283.135 107.546L276.702 126.226C276.569 126.61 276.338 126.952 276.03 127.218C275.723 127.483 275.351 127.663 274.952 127.739L255.392 131.45C254.998 131.525 254.591 131.495 254.212 131.365C253.833 131.234 253.494 131.007 253.23 130.706L240.969 116.732L222.703 120.197C222.309 120.272 221.902 120.242 221.523 120.112C221.144 119.981 220.805 119.754 220.541 119.452L207.414 104.484C207.146 104.179 206.964 103.808 206.885 103.409C206.807 103.011 206.835 102.598 206.967 102.214L213.4 83.5344C213.533 83.1503 213.764 82.8081 214.072 82.5423C214.379 82.2766 214.751 82.0968 215.15 82.0211L233.396 78.5593L239.392 61.1478C239.525 60.7637 239.756 60.4215 240.064 60.1557C240.371 59.89 240.743 59.7102 241.142 59.6345L260.702 55.9233ZM234.275 83.0841L219.973 85.7979L229.571 96.7431L243.874 94.0293L234.275 83.0841ZM244.794 98.5486L230.45 101.268L225.746 114.927L240.09 112.208L244.794 98.5486ZM244.448 113.709L254.075 124.683L258.78 111.024L249.152 100.05L244.448 113.709ZM252.66 97.0553L262.259 108L276.561 105.287L266.963 94.3415L252.66 97.0553ZM266.083 89.8167L270.787 76.1577L256.442 78.8813L251.738 92.5402L266.083 89.8167V89.8167ZM247.38 91.0393L252.084 77.3803L242.458 66.4013L237.754 80.0603L247.38 91.0393ZM245.965 63.4112L255.563 74.3564L269.866 71.6427L260.267 60.6975L245.965 63.4112ZM277.481 109.806L263.138 112.525L258.434 126.184L272.777 123.465L277.481 109.806ZM221.388 113.426L226.092 99.7669L216.465 88.7922L211.761 102.451L221.388 113.426Z" fill="#212121"/>
</g>
<g clip-path="url(#clip5_276_10412)">
<path fill-rule="evenodd" clip-rule="evenodd" d="M440.805 453.351C440.091 453.631 439.439 454.049 438.887 454.581C438.335 455.113 437.893 455.749 437.586 456.452C437.279 457.155 437.114 457.911 437.1 458.678C437.085 459.444 437.222 460.207 437.502 460.92C437.782 461.634 438.2 462.286 438.732 462.838C439.264 463.391 439.9 463.833 440.603 464.139C441.306 464.446 442.062 464.611 442.829 464.626C443.596 464.64 444.358 464.503 445.071 464.223C446.513 463.657 447.671 462.542 448.29 461.123C448.91 459.703 448.94 458.096 448.374 456.654C447.808 455.212 446.693 454.054 445.274 453.435C443.854 452.816 442.247 452.785 440.805 453.351ZM433.348 460.459C432.961 458.248 433.349 455.971 434.448 454.013C435.547 452.056 437.289 450.538 439.379 449.718C441.469 448.898 443.778 448.826 445.915 449.513C448.053 450.201 449.886 451.606 451.106 453.491L458.535 450.575L459.957 454.199L452.528 457.115C452.916 459.326 452.527 461.604 451.428 463.561C450.329 465.519 448.587 467.036 446.497 467.856C444.407 468.676 442.098 468.749 439.961 468.061C437.824 467.374 435.99 465.968 434.771 464.083L401.974 476.954L400.551 473.33L433.348 460.459ZM422.548 481.426C421.106 481.992 419.948 483.107 419.329 484.527C418.709 485.946 418.679 487.554 419.245 488.995C419.811 490.437 420.926 491.595 422.346 492.214C423.765 492.834 425.373 492.864 426.814 492.298C428.256 491.732 429.414 490.617 430.033 489.198C430.653 487.778 430.683 486.171 430.117 484.729C429.551 483.287 428.436 482.129 427.017 481.51C425.597 480.891 423.99 480.86 422.548 481.426ZM415.091 488.534C414.703 486.323 415.092 484.046 416.191 482.088C417.29 480.131 419.032 478.613 421.122 477.793C423.212 476.973 425.521 476.901 427.658 477.588C429.795 478.276 431.629 479.681 432.849 481.566L465.646 468.695L467.068 472.319L434.271 485.19C434.659 487.401 434.27 489.678 433.171 491.636C432.072 493.594 430.33 495.111 428.24 495.931C426.15 496.751 423.841 496.824 421.704 496.136C419.567 495.449 417.733 494.043 416.513 492.158L409.084 495.074L407.662 491.45L415.091 488.534ZM455.027 489.591C453.585 490.157 452.427 491.272 451.807 492.692C451.188 494.111 451.158 495.718 451.724 497.16C452.29 498.602 453.405 499.76 454.824 500.379C456.244 500.999 457.851 501.029 459.293 500.463C460.735 499.897 461.893 498.782 462.512 497.362C463.131 495.943 463.161 494.335 462.596 492.894C462.03 491.452 460.915 490.294 459.495 489.675C458.076 489.055 456.468 489.025 455.027 489.591ZM447.57 496.699C447.182 494.488 447.571 492.211 448.67 490.253C449.769 488.295 451.511 486.778 453.601 485.958C455.691 485.138 458 485.065 460.137 485.753C462.274 486.441 464.108 487.846 465.327 489.731L472.757 486.815L474.179 490.439L466.75 493.355C467.137 495.566 466.749 497.843 465.65 499.801C464.551 501.758 462.809 503.276 460.719 504.096C458.629 504.916 456.32 504.989 454.183 504.301C452.045 503.613 450.212 502.208 448.992 500.323L416.195 513.194L414.773 509.57L447.57 496.699Z" fill="#212121"/>
</g>
<defs>
<clipPath id="clip0_276_10412">
<rect width="95.6389" height="95.6389" fill="white" transform="translate(35.9131 466.42) rotate(-20.3341)"/>
</clipPath>
<clipPath id="clip1_276_10412">
<rect width="100" height="100" fill="white" transform="translate(590.575 59.6153) rotate(19.2444)"/>
</clipPath>
<clipPath id="clip2_276_10412">
<rect width="69.257" height="69.257" fill="white" transform="translate(242.925 537.275) rotate(15)"/>
</clipPath>
<clipPath id="clip3_276_10412">
<rect width="62.3361" height="67.5157" fill="white" transform="translate(391.404 123.268) rotate(-19.9492)"/>
</clipPath>
<clipPath id="clip4_276_10412">
<rect width="73.7528" height="73.7528" fill="white" transform="translate(227.016 44) rotate(19.0035)"/>
</clipPath>
<clipPath id="clip5_276_10412">
<rect width="62.2886" height="62.2886" fill="white" transform="translate(396.285 462.458) rotate(-21.4265)"/>
</clipPath>
</defs>
</svg>
